<svg width="47" height="20" viewBox="0 0 47 20" fill="none" xmlns="http://www.w3.org/2000/svg">
<g id="Group 9">
<path id="Vector" d="M0.681325 2.21947C9.29453 14.9051 9.70784 16.7126 10.325 16.6961C18.839 16.415 27.3586 16.1395 35.8726 15.8584C39.5648 10.976 43.0861 5.96674 46.4311 0.836288C45.8084 1.78964 40.3087 0.175005 22.1234 0.0372379C-2.64162 -0.144615 -0.619198 0.301753 0.681325 2.21947Z" fill="#F08BDF"/>
<path id="Vector_2" d="M17.715 8.50162C15.9957 11.1302 11.9729 15.7316 11.7139 18.8672C13.4993 19.264 34.1148 19.0821 34.192 19.0821C32.3679 14.2713 28.9899 9.83521 26.3337 5.41563C22.5258 -0.916148 22.2889 1.51958 17.7205 8.50162H17.715Z" fill="#F2C91E"/>
</g>
</svg>
