<svg width="58" height="57" viewBox="0 0 58 57" fill="none" xmlns="http://www.w3.org/2000/svg">
<g id="Btn down">
<path id="Vector" d="M30.0257 23.8215C28.3444 22.0213 22.8657 34.6043 20.1486 35.3922C19.5323 35.5712 19.2221 35.3994 15.3306 34.1872C13.7494 33.6952 13.4374 32.9526 14.3991 31.5885C18.2673 26.0997 22.4449 20.8292 26.9043 15.81C33.0071 18.6653 38.5922 22.6261 43.3027 27.443C45.1647 29.3476 40.7387 33.4657 38.303 32.5576C35.5125 31.5169 32.0751 26.0161 30.0274 23.8229L30.0257 23.8215Z" fill="#F08BDF"/>
<path id="Vector_2" d="M31.1805 29.4309C29.4992 27.6307 24.0205 40.2137 21.3033 41.0015C20.687 41.1806 20.3769 41.0088 16.4854 39.7966C14.9042 39.3046 14.5922 38.562 15.5539 37.1979C19.4221 31.7091 23.5997 26.4386 28.0591 21.4194C34.1619 24.2747 39.747 28.2355 44.4574 33.0523C46.3195 34.957 41.8935 39.075 39.4578 38.1669C36.6673 37.1263 33.2299 31.6254 31.1822 29.4323L31.1805 29.4309Z" fill="#F2C91E"/>
</g>
</svg>
