<svg width="58" height="57" viewBox="0 0 58 57" fill="none" xmlns="http://www.w3.org/2000/svg">
<g id="Btn down">
<path id="Vector" d="M30.0257 23.5217C28.3444 21.7215 22.8657 34.3045 20.1486 35.0924C19.5323 35.2714 19.2221 35.0996 15.3306 33.8874C13.7494 33.3954 13.4374 32.6528 14.3991 31.2887C18.2673 25.7999 22.4449 20.5294 26.9043 15.5102C33.0071 18.3655 38.5922 22.3263 43.3027 27.1432C45.1647 29.0478 40.7387 33.1659 38.303 32.2578C35.5125 31.2171 32.0751 25.7163 30.0274 23.5231L30.0257 23.5217Z" fill="#3C70D8"/>
<path id="Vector_2" d="M31.1805 29.131C29.4992 27.3309 24.0205 39.9139 21.3033 40.7017C20.687 40.8808 20.3769 40.709 16.4854 39.4968C14.9042 39.0048 14.5922 38.2622 15.5539 36.8981C19.4221 31.4093 23.5997 26.1388 28.0591 21.1196C34.1619 23.9749 39.747 27.9357 44.4574 32.7525C46.3195 34.6571 41.8935 38.7752 39.4578 37.8671C36.6673 36.8265 33.2299 31.3256 31.1822 29.1325L31.1805 29.131Z" fill="#F08BDF"/>
</g>
</svg>
