<svg width="130" height="133" viewBox="0 0 130 133" fill="none" xmlns="http://www.w3.org/2000/svg">
<g id="Btn down">
<path id="Vector" d="M70.4854 100.124C77.9405 105.093 86.8283 55.9728 95.7895 50.9147C97.8218 49.7662 99.0632 50.1153 113.852 51.1571C119.86 51.5785 121.585 53.9469 119.319 59.5791C110.209 82.2401 99.8207 104.387 88.2251 125.879C64.2365 120.867 41.1572 111.509 20.4595 98.3902C12.2772 93.2025 24.5069 74.9283 33.8878 76.1091C44.6356 77.4629 61.3978 94.0661 70.4781 100.12L70.4854 100.124Z" fill="#F08BDF"/>
<path id="Vector_2" d="M61.7135 81.2313C69.1685 86.2001 78.0563 37.0802 87.0175 32.0221C89.0498 30.8737 90.2912 31.2227 105.08 32.2645C111.088 32.6859 112.813 35.0543 110.547 40.6865C101.437 63.3475 91.0487 85.4939 79.4531 106.986C55.4646 101.974 32.3853 92.6164 11.6875 79.4977C3.50525 74.31 15.735 56.0357 25.1158 57.2165C35.8636 58.5703 52.6258 75.1736 61.7061 81.2276L61.7135 81.2313Z" fill="#F2C91E"/>
</g>
</svg>
