<svg width="130" height="132" viewBox="0 0 130 132" fill="none" xmlns="http://www.w3.org/2000/svg">
<g id="Btn down">
<path id="Vector" d="M70.4851 99.5155C77.9402 104.484 86.828 55.3644 95.7892 50.3063C97.8214 49.1579 99.0629 49.5069 113.851 50.5487C119.86 50.9701 121.584 53.3385 119.319 58.9707C110.208 81.6317 99.8203 103.778 88.2248 125.27C64.2362 120.258 41.1569 110.901 20.4591 97.7818C12.2769 92.5941 24.5066 74.3199 33.8875 75.5007C44.6353 76.8545 61.3974 93.4577 70.4778 99.5118L70.4851 99.5155Z" fill="#F08BDF"/>
<path id="Vector_2" d="M61.7134 80.6229C69.1684 85.5917 78.0562 36.4718 87.0174 31.4137C89.0497 30.2653 90.2911 30.6143 105.079 31.6561C111.088 32.0775 112.813 34.4459 110.547 40.0781C101.437 62.7391 91.0486 84.8855 79.453 106.378C55.4645 101.366 32.3851 92.008 11.6874 78.8893C3.50513 73.7016 15.7348 55.4273 25.1157 56.6081C35.8635 57.9619 52.6257 74.5652 61.706 80.6192L61.7134 80.6229Z" fill="#3C70D8"/>
</g>
</svg>
