<svg width="94" height="99" viewBox="0 0 94 99" fill="none" xmlns="http://www.w3.org/2000/svg">
<path d="M16.4676 37.0882C9.80693 66.7971 48.1249 88.4557 71.4298 64.4258C75.8401 59.8796 80.0842 40.7131 88.9047 47.4644C105.073 59.8343 75.7268 78.6308 66.5966 83.8491C24.752 107.781 -9.27653 58.7544 5.07948 26.9688C16.0976 2.56881 57.4438 -8.18499 47.5585 10.3019C44.3037 16.3811 35.1811 15.2559 28.6261 19.6586C22.5469 23.7441 18.0762 29.9064 16.4676 37.0882Z" fill="#F2C91E"/>
<path d="M10.328 51.0591C16.4526 46.0447 30.8614 43.024 37.8544 45.3348C56.3262 51.4367 55.9259 87.0058 31.4127 96.9213C2.60251 108.589 -9.09526 66.9633 10.328 51.0591Z" fill="#F08BDF"/>
<path d="M58.0556 31.4923C44.0016 23.6384 28.0597 50.3114 42.4006 57.6367C49.3408 61.1785 59.5357 57.5989 63.2437 50.9458C66.8686 44.4361 64.5652 35.1247 58.0631 31.4923H58.0556Z" fill="#3C70D8"/>
</svg>
