<svg width="86" height="88" viewBox="0 0 86 88" fill="none" xmlns="http://www.w3.org/2000/svg">
<path d="M73.0269 54.6808C63.3368 70.3514 44.7023 75.6103 30.4894 68.2441C23.382 64.5632 14.2394 55.0519 12.2323 47.7423C10.3868 41.0185 12.8053 33.9452 15.1953 27.3963C16.1384 24.8037 38.276 41.0676 73.0249 54.6854L73.0269 54.6808Z" fill="#F08BDF"/>
<path d="M66.1091 57.9386C81.2073 45.6673 75.9527 19.7126 53.8933 11.8463C33.9241 4.71976 17.4064 19.023 15.406 34.2248C18.6436 36.1495 20.9721 38.4416 24.5625 39.5713C24.7846 31.1694 31.231 23.3559 39.4183 21.4503C57.99 17.1294 71.4314 39.9633 58.1184 54.3925C60.2779 56.0412 63.4424 57.4133 66.1046 57.9366L66.1091 57.9386Z" fill="#F2C91E"/>
<path d="M34.3724 75.7663C49.3719 75.1888 46.5772 53.162 33.1439 52.9107C18.5831 52.6331 19.3709 76.3483 34.3724 75.7663Z" fill="#3C70D8"/>
</svg>
