<svg width="17" height="16" viewBox="0 0 17 16" fill="none" xmlns="http://www.w3.org/2000/svg">
<path id="Vector" d="M16.2681 14.86L11.1481 9.74C11.9681 8.71333 12.4614 7.41333 12.4614 6C12.4614 2.69333 9.76809 0 6.46142 0C3.15476 0 0.461426 2.69333 0.461426 6C0.461426 9.30667 3.15476 12 6.46142 12C7.87476 12 9.17476 11.5067 10.2014 10.6867L15.3214 15.8067C15.4548 15.94 15.6214 16 15.7948 16C15.9681 16 16.1348 15.9333 16.2681 15.8067C16.5281 15.5467 16.5281 15.1267 16.2681 14.8667V14.86ZM6.46142 10.6667C3.88809 10.6667 1.79476 8.57333 1.79476 6C1.79476 3.42667 3.88809 1.33333 6.46142 1.33333C9.03476 1.33333 11.1281 3.42667 11.1281 6C11.1281 8.57333 9.03476 10.6667 6.46142 10.6667Z" fill="#3C70D8"/>
</svg>
