<svg width="91" height="245" viewBox="0 0 91 245" fill="none" xmlns="http://www.w3.org/2000/svg">
<g id="Group 2">
<g id="Vector" style="mix-blend-mode:multiply">
<path d="M85.1098 146.842C85.5198 151.172 80.0398 169.662 66.4998 179.172C37.9498 199.242 1.11978 176.782 2.23978 144.752C2.30978 142.842 72.9298 144.322 79.1998 143.422C83.3298 142.832 84.8798 144.392 85.1098 146.842Z" fill="#3C70D8"/>
</g>
<g id="Vector_2" style="mix-blend-mode:multiply">
<path d="M17.3097 188.912C35.2397 174.432 69.5696 172.042 80.6696 201.152C95.1396 239.092 74.0397 217.472 27.4397 224.712C21.3597 225.652 2.04967 229.492 0.229666 220.132C-1.79033 209.702 9.97964 194.832 17.2996 188.922L17.3097 188.912Z" fill="#F08BDF"/>
</g>
<g id="Vector_3" style="mix-blend-mode:multiply">
<path d="M36.8497 243.932C58.8597 251.102 70.6297 216.462 51.4697 208.872C30.7097 200.652 14.8297 236.752 36.8497 243.932Z" fill="#F2C91E"/>
</g>
<g id="Vector_4" style="mix-blend-mode:multiply">
<path d="M45.0596 173.912C38.6096 164.502 43.7396 143.542 45.8296 133.282C25.1596 132.362 6.94959 113.422 6.82959 92.7321C26.1696 91.5121 38.0896 109.952 46.7396 124.432C45.6896 96.6721 47.6896 96.5121 38.6496 95.7921C20.6896 94.3621 6.51959 74.7621 10.7996 57.2621C27.4696 58.0821 42.5396 72.0021 44.6896 88.5621C49.0496 81.8221 47.3896 72.8121 44.0696 65.5121C34.9696 45.4621 24.1596 39.5321 45.0296 0.87207C57.0796 9.48207 63.6996 25.1121 61.5096 39.7621C59.0396 56.2321 46.5196 71.5421 50.2696 87.7621C52.0596 68.9821 72.0496 54.1021 90.5496 57.7621C79.6496 98.8921 63.9696 89.5421 56.4596 93.4621C50.3196 96.6721 50.7996 105.582 49.6496 121.712C66.4596 87.3621 77.3196 101.572 87.7496 92.4721C89.0996 109.112 78.9496 125.202 61.9096 130.472C58.0596 131.662 51.8296 130.982 49.4096 134.592C42.9196 144.292 52.1196 169.512 45.0596 173.892V173.912Z" fill="#F08BDF"/>
</g>
</g>
</svg>
