<svg width="95" height="74" viewBox="0 0 95 74" fill="none" xmlns="http://www.w3.org/2000/svg">
<g id="Group 2">
<g id="Vector" style="mix-blend-mode:multiply">
<path d="M46.7285 53.9714C45.4082 54.8689 38.4918 56.3755 33.0388 53.7017C21.5352 48.067 22.2476 32.2492 32.7483 26.9462C33.3751 26.631 45.3855 49.6081 46.7836 51.4657C47.7036 52.6899 47.4759 53.4643 46.7285 53.9714Z" fill="#3C70D8"/>
</g>
<g id="Vector_2" style="mix-blend-mode:multiply">
<path d="M21.2083 39.6015C29.0361 42.8086 35.8748 53.4285 28.474 62.1459C18.8288 73.5085 22.0523 62.8989 11.4841 49.1898C10.1067 47.4003 5.4573 41.8681 8.14621 39.6277C11.1439 37.1338 18.008 38.2905 21.2033 39.6001L21.2083 39.6015Z" fill="#F08BDF"/>
</g>
<g id="Vector_3" style="mix-blend-mode:multiply">
<path d="M6.96572 55.6149C8.55107 63.9623 21.7743 61.6235 20.828 54.1185C19.8014 45.9875 5.38183 47.2625 6.96572 55.6149Z" fill="#F2C91E"/>
</g>
<g id="Vector_4" style="mix-blend-mode:multiply">
<path d="M30.9401 45.8753C32.8264 42.1369 40.4754 40.081 44.1451 38.9392C40.7864 32.1278 43.6588 22.9217 50.2927 19.2248C54.1046 25.23 50.2809 32.3245 47.1527 37.6671C55.8962 32.4211 56.3013 33.0361 54.9345 30.001C52.219 23.9712 56.018 15.9478 62.4038 14.2303C65.0875 19.7373 63.2746 27.0459 58.3281 30.6655C61.2669 30.8762 63.8716 28.7492 65.6326 26.3905C70.4729 19.9184 70.469 15.3928 86.5943 15.2702C85.9554 20.6685 82.0984 25.5615 76.9989 27.4473C71.2645 29.5649 64.1262 28.2448 59.572 32.3189C65.9292 29.5741 74.2499 33.3731 76.3437 39.9708C61.1867 43.737 61.4218 37.0403 58.833 35.3177C56.7149 33.9103 53.9338 35.6401 48.5421 38.1222C62.5632 37.4558 59.9127 43.4614 64.6839 45.2073C59.5702 48.5837 52.6001 48.1638 47.8921 43.6146C46.8286 42.5866 45.9458 40.4624 44.3567 40.3223C40.0892 39.9498 33.6036 47.3683 30.9465 45.8718L30.9401 45.8753Z" fill="#F08BDF"/>
</g>
</g>
</svg>
