<svg width="79" height="71" viewBox="0 0 79 71" fill="none" xmlns="http://www.w3.org/2000/svg">
<g id="SL Super logo">
<path d="M32.3707 13.825C32.0616 13.5101 31.4876 13.0828 30.6487 12.5429C29.8539 12.0031 28.8604 11.4858 27.6682 10.991C26.5202 10.4512 25.2618 10.0013 23.893 9.64147C22.5242 9.28159 21.1333 9.10165 19.7203 9.10165C17.2035 9.10165 15.3269 9.57399 14.0905 10.5187C12.8542 11.4633 12.236 12.7904 12.236 14.4998C12.236 15.4894 12.4568 16.3216 12.8984 16.9964C13.3841 17.6262 14.0685 18.1885 14.9516 18.6833C15.8347 19.1781 16.9385 19.628 18.2632 20.0328C19.632 20.4377 21.1995 20.865 22.9657 21.3149C25.2618 21.9447 27.337 22.6194 29.1916 23.3392C31.0902 24.0589 32.6798 24.9586 33.9603 26.0382C35.2849 27.1178 36.3005 28.4224 37.007 29.9519C37.7135 31.4363 38.0667 33.2807 38.0667 35.4849C38.0667 38.049 37.581 40.2533 36.6096 42.0976C35.6823 43.897 34.4018 45.359 32.7681 46.4836C31.1785 47.6082 29.324 48.4404 27.2046 48.9802C25.1293 49.475 22.9436 49.7224 20.6476 49.7224C17.1152 49.7224 13.6269 49.1826 10.1828 48.103C6.73874 47.0234 3.64789 45.4939 0.910278 43.5146L4.95046 35.4849C5.34786 35.8898 6.05434 36.4296 7.0699 37.1044C8.12962 37.7341 9.36596 38.3864 10.7789 39.0612C12.1919 39.6909 13.7594 40.2308 15.4814 40.6806C17.2035 41.1304 18.9697 41.3554 20.78 41.3554C25.8137 41.3554 28.3305 39.7134 28.3305 36.4296C28.3305 35.395 28.0435 34.5178 27.4695 33.798C26.8955 33.0783 26.0786 32.4485 25.0189 31.9087C23.9592 31.3689 22.6787 30.874 21.1774 30.4242C19.6762 29.9743 17.9983 29.4795 16.1438 28.9397C13.8918 28.3099 11.927 27.6352 10.2491 26.9154C8.61533 26.1507 7.24652 25.2735 6.14265 24.2838C5.03877 23.2492 4.19983 22.0796 3.62581 20.7751C3.09595 19.4255 2.83102 17.8286 2.83102 15.9842C2.83102 13.5551 3.27257 11.3959 4.15567 9.50651C5.03877 7.61717 6.25303 6.04272 7.79846 4.78316C9.38804 3.52361 11.2205 2.57894 13.2958 1.94916C15.371 1.27439 17.6009 0.937012 19.9852 0.937012C23.2969 0.937012 26.3436 1.47682 29.1253 2.55644C31.9071 3.59108 34.3356 4.82815 36.4109 6.26765L32.3707 13.825Z" fill="#3C70D8"/>
<path d="M44.9735 49.1826V1.27439H54.1136V41.018H78.0898V49.1826H44.9735Z" fill="#3C70D8"/>
<path d="M8.79696 58.3671C8.10057 57.5754 7.11654 57.1795 5.84488 57.1795C4.79525 57.1795 4.02822 57.3852 3.54377 57.7965C3.06942 58.1975 2.83225 58.7424 2.83225 59.4313C2.83225 59.7809 2.8928 60.074 3.01391 60.3104C3.13503 60.5367 3.32174 60.732 3.57405 60.8965C3.83646 61.061 4.16447 61.1998 4.55808 61.313C4.95169 61.4261 5.42604 61.5443 5.98113 61.6677C6.55641 61.7911 7.07617 61.9299 7.54043 62.0841C8.01478 62.2281 8.41344 62.4131 8.7364 62.6393C9.06946 62.8656 9.32177 63.1432 9.49335 63.4722C9.67501 63.8012 9.76585 64.2074 9.76585 64.6906C9.76585 65.1739 9.66997 65.5955 9.47821 65.9553C9.29654 66.3152 9.03413 66.6185 8.69099 66.8653C8.35793 67.1018 7.95423 67.2817 7.47988 67.4051C7.01562 67.5285 6.49585 67.5902 5.92058 67.5902C4.24521 67.5902 2.8272 67.0452 1.66656 65.9553L2.0753 65.323C2.52947 65.8062 3.08456 66.1918 3.74058 66.4797C4.3966 66.7573 5.13335 66.8961 5.95085 66.8961C6.88946 66.8961 7.62117 66.7213 8.14599 66.3718C8.68089 66.0222 8.94835 65.4926 8.94835 64.7832C8.94835 64.4233 8.8777 64.12 8.7364 63.8732C8.59511 63.6161 8.38316 63.3951 8.10057 63.21C7.82807 63.0249 7.47988 62.8656 7.05599 62.7319C6.6321 62.5982 6.13757 62.4697 5.57238 62.3463C4.9971 62.2229 4.48743 62.0944 4.04336 61.9607C3.60938 61.8168 3.241 61.642 2.93822 61.4363C2.64554 61.2204 2.4235 60.9634 2.27211 60.6652C2.12072 60.367 2.04503 59.9917 2.04503 59.5393C2.04503 59.0457 2.13586 58.6088 2.31753 58.2283C2.50929 57.8479 2.77169 57.5291 3.10475 57.2721C3.4378 57.0047 3.83646 56.8042 4.30072 56.6706C4.76498 56.5369 5.2797 56.4701 5.84488 56.4701C6.54127 56.4701 7.16196 56.578 7.70696 56.794C8.25196 56.9996 8.7465 57.3184 9.19057 57.7502L8.79696 58.3671Z" fill="#3C70D8"/>
<path d="M13.921 67.6519C12.2456 67.6519 11.4079 66.4694 11.4079 64.1045V59.4776H12.1649V63.9966C12.1649 65.9707 12.8259 66.9578 14.1481 66.9578C14.4811 66.9578 14.8041 66.9013 15.117 66.7882C15.4298 66.6648 15.7225 66.5003 15.995 66.2946C16.2675 66.0787 16.5047 65.8217 16.7065 65.5235C16.9185 65.2253 17.085 64.8963 17.2061 64.5364V59.4776H17.9631V66.418C17.9631 66.6751 18.069 66.8036 18.281 66.8036V67.4976C18.2305 67.5079 18.1851 67.5131 18.1447 67.5131C18.1044 67.5131 18.0741 67.5131 18.0539 67.5131C17.852 67.5131 17.6704 67.4514 17.5089 67.328C17.3575 67.1943 17.2818 67.0195 17.2818 66.8036V65.6006C16.9387 66.2484 16.4643 66.7522 15.8588 67.1121C15.2633 67.4719 14.6174 67.6519 13.921 67.6519Z" fill="#3C70D8"/>
<path d="M24.2141 67.6519C23.5379 67.6519 22.9324 67.4719 22.3974 67.1121C21.8726 66.7419 21.4487 66.2946 21.1258 65.7702V70.7828H20.3688V59.4776H21.0652V61.0816C21.3882 60.5675 21.8121 60.1511 22.3369 59.8323C22.8718 59.5033 23.442 59.3388 24.0476 59.3388C24.5926 59.3388 25.0972 59.457 25.5615 59.6935C26.0257 59.93 26.4244 60.2436 26.7574 60.6343C27.0905 61.0148 27.3479 61.4569 27.5295 61.9607C27.7213 62.4646 27.8172 62.9787 27.8172 63.503C27.8172 64.0583 27.7314 64.5878 27.5598 65.0916C27.3882 65.5955 27.141 66.0376 26.818 66.418C26.5051 66.7985 26.1267 67.1018 25.6826 67.328C25.2385 67.5439 24.749 67.6519 24.2141 67.6519ZM24.0324 66.9578C24.4866 66.9578 24.9004 66.8602 25.2738 66.6648C25.6473 66.4694 25.9652 66.2124 26.2276 65.8936C26.49 65.5646 26.6918 65.1945 26.8331 64.7832C26.9744 64.3616 27.0451 63.9349 27.0451 63.503C27.0451 63.0404 26.9643 62.6034 26.8029 62.1921C26.6414 61.7705 26.4143 61.4003 26.1216 61.0816C25.839 60.7629 25.506 60.5109 25.1224 60.3259C24.7389 60.1305 24.3302 60.0328 23.8962 60.0328C23.6237 60.0328 23.331 60.0945 23.0181 60.2179C22.7154 60.331 22.4277 60.4904 22.1552 60.696C21.8827 60.8914 21.6506 61.1176 21.4588 61.3746C21.2671 61.6317 21.1561 61.9042 21.1258 62.1921V64.8294C21.257 65.1276 21.4235 65.4052 21.6254 65.6623C21.8272 65.9193 22.0543 66.1456 22.3066 66.3409C22.5589 66.5363 22.8314 66.6905 23.1241 66.8036C23.4168 66.9064 23.7196 66.9578 24.0324 66.9578Z" fill="#3C70D8"/>
<path d="M32.9841 67.6519C32.429 67.6519 31.9143 67.5439 31.44 67.328C30.9656 67.1018 30.5518 66.7985 30.1986 66.418C29.8554 66.0273 29.5829 65.58 29.3811 65.0762C29.1893 64.5724 29.0934 64.0326 29.0934 63.4568C29.0934 62.8913 29.1893 62.3617 29.3811 61.8682C29.5829 61.3644 29.8554 60.9274 30.1986 60.5572C30.5417 60.1768 30.9454 59.8786 31.4097 59.6627C31.884 59.4467 32.3937 59.3388 32.9387 59.3388C33.4938 59.3388 34.0085 59.4519 34.4829 59.6781C34.9572 59.894 35.366 60.1922 35.7091 60.5726C36.0523 60.9428 36.3197 61.3798 36.5115 61.8836C36.7032 62.3772 36.7991 62.9015 36.7991 63.4568C36.7991 63.5082 36.7991 63.575 36.7991 63.6573C36.7991 63.7292 36.7941 63.7755 36.784 63.7961H29.8807C29.9109 64.2588 30.0169 64.6906 30.1986 65.0916C30.3802 65.4823 30.6073 65.8217 30.8798 66.1096C31.1624 66.3975 31.4854 66.6237 31.8487 66.7882C32.212 66.9527 32.6006 67.035 33.0144 67.035C33.2869 67.035 33.5544 66.999 33.8168 66.927C34.0792 66.8447 34.3214 66.7368 34.5434 66.6031C34.7756 66.4694 34.9774 66.3101 35.149 66.125C35.3306 65.9296 35.4719 65.7188 35.5729 65.4926L36.239 65.6777C36.128 65.9656 35.9614 66.2329 35.7394 66.4797C35.5275 66.7162 35.2751 66.9218 34.9824 67.0966C34.6999 67.2714 34.387 67.4051 34.0438 67.4976C33.7007 67.6005 33.3475 67.6519 32.9841 67.6519ZM36.0724 63.1792C36.0422 62.7062 35.9362 62.2743 35.7545 61.8836C35.583 61.4929 35.3559 61.1587 35.0733 60.8811C34.8008 60.5932 34.4829 60.3721 34.1195 60.2179C33.7562 60.0534 33.3676 59.9711 32.9538 59.9711C32.54 59.9711 32.1515 60.0534 31.7881 60.2179C31.4248 60.3721 31.1019 60.5932 30.8193 60.8811C30.5468 61.1587 30.3247 61.498 30.1532 61.899C29.9917 62.2898 29.8958 62.7165 29.8655 63.1792H36.0724Z" fill="#3C70D8"/>
<path d="M42.1887 60.1716C41.4822 60.1922 40.8615 60.4081 40.3266 60.8194C39.8018 61.2204 39.4334 61.7756 39.2214 62.4851V67.4976H38.4645V59.4776H39.1912V61.4518C39.4637 60.8862 39.822 60.4287 40.266 60.0791C40.7202 59.7192 41.2046 59.5136 41.7194 59.4622C41.8203 59.4519 41.9111 59.4467 41.9919 59.4467C42.0726 59.4467 42.1382 59.4467 42.1887 59.4467V60.1716Z" fill="#3C70D8"/>
<path d="M47.2033 56.2387H47.9754V65.9091C47.9754 66.2072 48.0561 66.4437 48.2176 66.6185C48.3892 66.7933 48.6213 66.8807 48.914 66.8807C49.025 66.8807 49.1562 66.8704 49.3076 66.8499C49.4691 66.819 49.6154 66.7779 49.7466 66.7265L49.898 67.3434C49.7264 67.4154 49.5145 67.4719 49.2622 67.5131C49.0099 67.5645 48.7929 67.5902 48.6112 67.5902C48.1873 67.5902 47.8442 67.4617 47.5818 67.2046C47.3294 66.9373 47.2033 66.5825 47.2033 66.1404V56.2387Z" fill="#3C70D8"/>
<path d="M54.3608 67.6519C53.8057 67.6519 53.291 67.5439 52.8166 67.328C52.3524 67.1018 51.9487 66.7985 51.6055 66.418C51.2624 66.0376 50.9949 65.5955 50.8031 65.0916C50.6114 64.5878 50.5155 64.0583 50.5155 63.503C50.5155 62.9375 50.6114 62.4029 50.8031 61.899C51.005 61.3952 51.2775 60.9531 51.6206 60.5726C51.9638 60.1922 52.3675 59.894 52.8318 59.6781C53.3061 59.4519 53.8158 59.3388 54.3608 59.3388C54.9058 59.3388 55.4104 59.4519 55.8747 59.6781C56.3389 59.894 56.7426 60.1922 57.0858 60.5726C57.439 60.9531 57.7115 61.3952 57.9033 61.899C58.1051 62.4029 58.206 62.9375 58.206 63.503C58.206 64.0583 58.1051 64.5878 57.9033 65.0916C57.7115 65.5955 57.4441 66.0376 57.1009 66.418C56.7578 66.7985 56.349 67.1018 55.8747 67.328C55.4104 67.5439 54.9058 67.6519 54.3608 67.6519ZM51.2724 63.5339C51.2724 64.0069 51.3532 64.4541 51.5147 64.8757C51.6762 65.287 51.8931 65.6469 52.1656 65.9553C52.4482 66.2638 52.7762 66.5106 53.1497 66.6956C53.5231 66.8704 53.9217 66.9578 54.3456 66.9578C54.7695 66.9578 55.1682 66.8704 55.5416 66.6956C55.915 66.5106 56.243 66.2587 56.5256 65.9399C56.8082 65.6212 57.0303 65.2561 57.1917 64.8449C57.3532 64.4233 57.434 63.9709 57.434 63.4876C57.434 63.0146 57.3532 62.5725 57.1917 62.1612C57.0303 61.7397 56.8082 61.3746 56.5256 61.0662C56.243 60.7474 55.915 60.4955 55.5416 60.3104C55.1783 60.1254 54.7847 60.0328 54.3608 60.0328C53.9369 60.0328 53.5382 60.1254 53.1648 60.3104C52.7914 60.4955 52.4634 60.7474 52.1808 61.0662C51.9083 61.3849 51.6862 61.7602 51.5147 62.1921C51.3532 62.6136 51.2724 63.0609 51.2724 63.5339Z" fill="#3C70D8"/>
<path d="M63.1988 67.621C62.6538 67.621 62.1542 67.5079 61.7001 67.2817C61.2459 67.0452 60.8523 66.7368 60.5192 66.3563C60.1963 65.9656 59.9389 65.5235 59.7471 65.0299C59.5655 64.5364 59.4746 64.0274 59.4746 63.503C59.4746 62.9581 59.5604 62.4337 59.732 61.9299C59.9137 61.4261 60.166 60.9839 60.4889 60.6035C60.8119 60.2128 61.1954 59.9043 61.6395 59.6781C62.0937 59.4519 62.5932 59.3388 63.1382 59.3388C63.8245 59.3388 64.42 59.5239 64.9246 59.894C65.4393 60.2539 65.8733 60.696 66.2266 61.2204V59.4776H66.923V67.6519C66.923 68.1968 66.822 68.6749 66.6202 69.0862C66.4183 69.4975 66.1458 69.8368 65.8027 70.1042C65.4696 70.3818 65.076 70.5874 64.6218 70.7211C64.1778 70.865 63.7085 70.937 63.2139 70.937C62.7598 70.937 62.351 70.8907 61.9877 70.7982C61.6244 70.7159 61.3014 70.5926 61.0188 70.428C60.7463 70.2738 60.499 70.0785 60.277 69.842C60.0651 69.6158 59.8783 69.3639 59.7169 69.0862L60.2316 68.7315C60.5444 69.2765 60.9683 69.6723 61.5032 69.9191C62.0382 70.1761 62.6084 70.3047 63.2139 70.3047C63.6176 70.3047 63.9961 70.2481 64.3493 70.135C64.7127 70.0219 65.0256 69.8522 65.288 69.626C65.5605 69.4101 65.7724 69.1376 65.9238 68.8086C66.0853 68.4796 66.166 68.094 66.166 67.6519V65.8936C65.843 66.418 65.4141 66.8396 64.8792 67.1583C64.3443 67.4668 63.7842 67.621 63.1988 67.621ZM63.3805 66.9578C63.7135 66.9578 64.0365 66.8961 64.3493 66.7728C64.6723 66.6391 64.9599 66.4694 65.2123 66.2638C65.4747 66.0582 65.6866 65.8268 65.8481 65.5697C66.0197 65.3127 66.1256 65.0556 66.166 64.7986V62.1612C66.0449 61.8528 65.8834 61.57 65.6816 61.313C65.4797 61.0456 65.2476 60.8194 64.9852 60.6343C64.7329 60.4493 64.4553 60.3053 64.1525 60.2025C63.8599 60.0894 63.5621 60.0328 63.2594 60.0328C62.785 60.0328 62.3611 60.1357 61.9877 60.3413C61.6143 60.5469 61.2963 60.8143 61.0339 61.1433C60.7816 61.4723 60.5848 61.8476 60.4435 62.2692C60.3123 62.6805 60.2467 63.0969 60.2467 63.5185C60.2467 63.9812 60.3275 64.4182 60.4889 64.8294C60.6504 65.2407 60.8725 65.6057 61.155 65.9245C61.4376 66.2432 61.7707 66.4951 62.1542 66.6802C62.5377 66.8653 62.9465 66.9578 63.3805 66.9578Z" fill="#3C70D8"/>
<path d="M72.5895 67.6519C72.0344 67.6519 71.5197 67.5439 71.0453 67.328C70.5811 67.1018 70.1774 66.7985 69.8342 66.418C69.4911 66.0376 69.2236 65.5955 69.0319 65.0916C68.8401 64.5878 68.7442 64.0583 68.7442 63.503C68.7442 62.9375 68.8401 62.4029 69.0319 61.899C69.2337 61.3952 69.5062 60.9531 69.8494 60.5726C70.1925 60.1922 70.5962 59.894 71.0605 59.6781C71.5348 59.4519 72.0445 59.3388 72.5895 59.3388C73.1345 59.3388 73.6391 59.4519 74.1034 59.6781C74.5676 59.894 74.9713 60.1922 75.3145 60.5726C75.6677 60.9531 75.9402 61.3952 76.132 61.899C76.3338 62.4029 76.4348 62.9375 76.4348 63.503C76.4348 64.0583 76.3338 64.5878 76.132 65.0916C75.9402 65.5955 75.6728 66.0376 75.3296 66.418C74.9865 66.7985 74.5777 67.1018 74.1034 67.328C73.6391 67.5439 73.1345 67.6519 72.5895 67.6519ZM69.5012 63.5339C69.5012 64.0069 69.5819 64.4541 69.7434 64.8757C69.9049 65.287 70.1219 65.6469 70.3944 65.9553C70.677 66.2638 71.005 66.5106 71.3784 66.6956C71.7518 66.8704 72.1505 66.9578 72.5744 66.9578C72.9982 66.9578 73.3969 66.8704 73.7703 66.6956C74.1438 66.5106 74.4718 66.2587 74.7544 65.9399C75.0369 65.6212 75.259 65.2561 75.4205 64.8449C75.5819 64.4233 75.6627 63.9709 75.6627 63.4876C75.6627 63.0146 75.5819 62.5725 75.4205 62.1612C75.259 61.7397 75.0369 61.3746 74.7544 61.0662C74.4718 60.7474 74.1438 60.4955 73.7703 60.3104C73.407 60.1254 73.0134 60.0328 72.5895 60.0328C72.1656 60.0328 71.767 60.1254 71.3935 60.3104C71.0201 60.4955 70.6921 60.7474 70.4095 61.0662C70.137 61.3849 69.915 61.7602 69.7434 62.1921C69.5819 62.6136 69.5012 63.0609 69.5012 63.5339Z" fill="#3C70D8"/>
</g>
</svg>
