<svg width="45" height="40" viewBox="0 0 45 40" fill="none" xmlns="http://www.w3.org/2000/svg">
<g id="SL Super logo">
<path d="M17.9774 7.36456C17.8008 7.18463 17.4728 6.94043 16.9934 6.63196C16.5392 6.3235 15.9715 6.02789 15.2902 5.74513C14.6342 5.43667 13.9151 5.17962 13.133 4.97397C12.3508 4.76833 11.556 4.66551 10.7486 4.66551C9.3104 4.66551 8.23806 4.93542 7.53158 5.47523C6.8251 6.01504 6.47186 6.77334 6.47186 7.75015C6.47186 8.31566 6.59802 8.79121 6.85033 9.17679C7.12788 9.53666 7.51897 9.85798 8.02359 10.1407C8.52822 10.4235 9.15901 10.6805 9.91595 10.9119C10.6981 11.1432 11.5938 11.3874 12.6031 11.6445C13.9151 12.0044 15.101 12.3899 16.1607 12.8012C17.2457 13.2125 18.154 13.7266 18.8857 14.3436C19.6427 14.9605 20.223 15.7059 20.6267 16.5799C21.0304 17.4282 21.2322 18.4821 21.2322 19.7417C21.2322 21.2069 20.9547 22.4664 20.3996 23.5203C19.8698 24.5485 19.138 25.384 18.2045 26.0266C17.2961 26.6692 16.2364 27.1448 15.0253 27.4532C13.8394 27.736 12.5905 27.8774 11.2784 27.8774C9.25993 27.8774 7.26665 27.5689 5.2986 26.952C3.33055 26.3351 1.56435 25.4611 0 24.3301L2.30868 19.7417C2.53576 19.973 2.93946 20.2815 3.51978 20.6671C4.12534 21.0269 4.83182 21.3997 5.63922 21.7852C6.44663 22.1451 7.34235 22.4536 8.32637 22.7106C9.3104 22.9677 10.3197 23.0962 11.3541 23.0962C14.2305 23.0962 15.6687 22.158 15.6687 20.2815C15.6687 19.6902 15.5047 19.189 15.1767 18.7777C14.8487 18.3664 14.3819 18.0066 13.7764 17.6981C13.1708 17.3896 12.4391 17.1069 11.5812 16.8498C10.7234 16.5928 9.76456 16.31 8.70484 16.0015C7.41804 15.6417 6.29524 15.2561 5.33645 14.8448C4.40288 14.4078 3.62071 13.9066 2.98992 13.341C2.35914 12.7498 1.87974 12.0815 1.55173 11.336C1.24896 10.5649 1.09757 9.65234 1.09757 8.59842C1.09757 7.21033 1.34988 5.97648 1.85451 4.89686C2.35914 3.81723 3.053 2.91755 3.9361 2.1978C4.84443 1.47805 5.89154 0.938242 7.07742 0.578368C8.26329 0.192789 9.53748 0 10.9 0C12.7923 0 14.5333 0.308463 16.1229 0.92539C17.7125 1.51661 19.1002 2.22351 20.2861 3.04608L17.9774 7.36456Z" fill="#F2C91E"/>
<path d="M25.179 27.5689V0.192789H30.4019V22.9034H44.1026V27.5689H25.179Z" fill="#F2C91E"/>
<path d="M4.50667 32.8172C4.10874 32.3648 3.54644 32.1386 2.81977 32.1386C2.21999 32.1386 1.78168 32.2561 1.50485 32.4911C1.2338 32.7203 1.09827 33.0317 1.09827 33.4253C1.09827 33.6251 1.13287 33.7925 1.20208 33.9277C1.27128 34.0569 1.37798 34.1686 1.52216 34.2626C1.6721 34.3566 1.85954 34.4359 2.08446 34.5005C2.30938 34.5652 2.58043 34.6327 2.89763 34.7032C3.22636 34.7737 3.52337 34.8531 3.78866 34.9412C4.05972 35.0235 4.28752 35.1292 4.47207 35.2585C4.66239 35.3877 4.80657 35.5464 4.90461 35.7344C5.00842 35.9224 5.06032 36.1545 5.06032 36.4306C5.06032 36.7068 5.00554 36.9477 4.89596 37.1533C4.79215 37.359 4.6422 37.5323 4.44612 37.6733C4.2558 37.8084 4.02511 37.9113 3.75406 37.9818C3.48877 38.0523 3.19176 38.0875 2.86303 38.0875C1.90567 38.0875 1.09538 37.7761 0.432159 37.1533L0.66573 36.792C0.925253 37.0681 1.24245 37.2885 1.61731 37.453C1.99218 37.6116 2.41319 37.6909 2.88033 37.6909C3.41668 37.6909 3.8348 37.591 4.13469 37.3913C4.44035 37.1915 4.59318 36.8889 4.59318 36.4835C4.59318 36.2779 4.55281 36.1045 4.47207 35.9635C4.39133 35.8166 4.27022 35.6903 4.10874 35.5846C3.95302 35.4788 3.75406 35.3877 3.51184 35.3114C3.26961 35.235 2.98702 35.1615 2.66406 35.091C2.33533 35.0205 2.04409 34.9471 1.79033 34.8707C1.54234 34.7884 1.33184 34.6885 1.15882 34.571C0.991575 34.4477 0.864697 34.3008 0.77819 34.1304C0.691682 33.96 0.648428 33.7455 0.648428 33.487C0.648428 33.205 0.700333 32.9553 0.804142 32.7379C0.913718 32.5205 1.06367 32.3384 1.25398 32.1915C1.4443 32.0387 1.6721 31.9241 1.93739 31.8477C2.20268 31.7714 2.49681 31.7332 2.81977 31.7332C3.21771 31.7332 3.57239 31.7949 3.88382 31.9183C4.19525 32.0358 4.47784 32.2179 4.73159 32.4647L4.50667 32.8172Z" fill="#F2C91E"/>
<path d="M7.43469 38.1228C6.47734 38.1228 5.99866 37.4471 5.99866 36.0957V33.4518H6.4312V36.034C6.4312 37.1621 6.80895 37.7262 7.56445 37.7262C7.75477 37.7262 7.93932 37.6939 8.1181 37.6292C8.29689 37.5587 8.46413 37.4647 8.61985 37.3472C8.77556 37.2238 8.91109 37.0769 9.02643 36.9065C9.14755 36.7362 9.2427 36.5481 9.31191 36.3425V33.4518H9.74445V37.4177C9.74445 37.5646 9.805 37.6381 9.92612 37.6381V38.0346C9.89728 38.0405 9.87133 38.0435 9.84826 38.0435C9.82519 38.0435 9.80789 38.0435 9.79635 38.0435C9.68101 38.0435 9.5772 38.0082 9.48493 37.9377C9.39842 37.8613 9.35516 37.7614 9.35516 37.6381V36.9506C9.15908 37.3208 8.88802 37.6087 8.54199 37.8143C8.20173 38.02 7.83263 38.1228 7.43469 38.1228Z" fill="#F2C91E"/>
<path d="M13.3165 38.1228C12.9301 38.1228 12.584 38.02 12.2784 37.8143C11.9785 37.6028 11.7363 37.3472 11.5517 37.0476V39.9119H11.1192V33.4518H11.5171V34.3683C11.7017 34.0746 11.9439 33.8366 12.2438 33.6545C12.5494 33.4664 12.8753 33.3724 13.2213 33.3724C13.5327 33.3724 13.8211 33.44 14.0864 33.5751C14.3517 33.7103 14.5795 33.8895 14.7698 34.1128C14.9601 34.3301 15.1072 34.5828 15.211 34.8707C15.3206 35.1586 15.3754 35.4524 15.3754 35.752C15.3754 36.0693 15.3263 36.3719 15.2283 36.6598C15.1303 36.9477 14.989 37.2003 14.8044 37.4177C14.6256 37.6351 14.4094 37.8084 14.1556 37.9377C13.9018 38.0611 13.6221 38.1228 13.3165 38.1228ZM13.2127 37.7262C13.4722 37.7262 13.7086 37.6704 13.922 37.5587C14.1354 37.4471 14.3171 37.3002 14.467 37.1181C14.617 36.93 14.7323 36.7185 14.8131 36.4835C14.8938 36.2426 14.9342 35.9988 14.9342 35.752C14.9342 35.4876 14.888 35.2379 14.7958 35.0029C14.7035 34.762 14.5737 34.5505 14.4065 34.3683C14.245 34.1862 14.0547 34.0422 13.8355 33.9365C13.6164 33.8249 13.3828 33.769 13.1348 33.769C12.9791 33.769 12.8118 33.8043 12.6331 33.8748C12.46 33.9394 12.2957 34.0305 12.14 34.148C11.9843 34.2596 11.8516 34.3889 11.742 34.5358C11.6325 34.6827 11.569 34.8384 11.5517 35.0029V36.51C11.6267 36.6803 11.7218 36.839 11.8372 36.9859C11.9525 37.1328 12.0823 37.262 12.2265 37.3737C12.3707 37.4853 12.5264 37.5734 12.6936 37.6381C12.8609 37.6968 13.0339 37.7262 13.2127 37.7262Z" fill="#F2C91E"/>
<path d="M18.3279 38.1228C18.0107 38.1228 17.7166 38.0611 17.4455 37.9377C17.1745 37.8084 16.938 37.6351 16.7362 37.4177C16.5401 37.1944 16.3844 36.9389 16.269 36.651C16.1595 36.3631 16.1047 36.0546 16.1047 35.7256C16.1047 35.4024 16.1595 35.0998 16.269 34.8178C16.3844 34.5299 16.5401 34.2802 16.7362 34.0687C16.9323 33.8513 17.1629 33.6809 17.4282 33.5575C17.6993 33.4341 17.9905 33.3724 18.302 33.3724C18.6192 33.3724 18.9133 33.4371 19.1843 33.5663C19.4554 33.6897 19.689 33.8601 19.885 34.0775C20.0811 34.289 20.234 34.5387 20.3435 34.8266C20.4531 35.1086 20.5079 35.4083 20.5079 35.7256C20.5079 35.755 20.5079 35.7931 20.5079 35.8401C20.5079 35.8813 20.505 35.9077 20.4993 35.9195H16.5545C16.5718 36.1839 16.6324 36.4306 16.7362 36.6598C16.84 36.883 16.9697 37.0769 17.1255 37.2415C17.2869 37.406 17.4715 37.5352 17.6791 37.6292C17.8867 37.7232 18.1088 37.7702 18.3452 37.7702C18.5009 37.7702 18.6538 37.7497 18.8037 37.7086C18.9537 37.6615 19.0921 37.5999 19.2189 37.5235C19.3516 37.4471 19.4669 37.356 19.565 37.2503C19.6688 37.1386 19.7495 37.0182 19.8072 36.8889L20.1878 36.9947C20.1244 37.1592 20.0292 37.312 19.9024 37.453C19.7812 37.5881 19.6371 37.7056 19.4698 37.8055C19.3083 37.9054 19.1295 37.9818 18.9335 38.0346C18.7374 38.0934 18.5355 38.1228 18.3279 38.1228ZM20.0927 35.5669C20.0754 35.2967 20.0148 35.0499 19.911 34.8266C19.813 34.6034 19.6832 34.4124 19.5217 34.2538C19.366 34.0892 19.1843 33.9629 18.9767 33.8748C18.7691 33.7808 18.5471 33.7338 18.3106 33.7338C18.0742 33.7338 17.8521 33.7808 17.6445 33.8748C17.4369 33.9629 17.2523 34.0892 17.0908 34.2538C16.9351 34.4124 16.8083 34.6063 16.7102 34.8354C16.6179 35.0587 16.5632 35.3025 16.5459 35.5669H20.0927Z" fill="#F2C91E"/>
<path d="M23.5877 33.8484C23.1839 33.8601 22.8293 33.9835 22.5236 34.2185C22.2237 34.4477 22.0132 34.7649 21.8921 35.1703V38.0346H21.4596V33.4518H21.8748V34.5799C22.0305 34.2567 22.2352 33.9952 22.489 33.7955C22.7485 33.5898 23.0253 33.4723 23.3195 33.4429C23.3771 33.4371 23.4291 33.4341 23.4752 33.4341C23.5213 33.4341 23.5588 33.4341 23.5877 33.4341V33.8484Z" fill="#F2C91E"/>
<path d="M26.4532 31.601H26.8943V37.1269C26.8943 37.2973 26.9405 37.4324 27.0328 37.5323C27.1308 37.6322 27.2634 37.6821 27.4307 37.6821C27.4941 37.6821 27.5691 37.6762 27.6556 37.6645C27.7479 37.6469 27.8315 37.6234 27.9065 37.594L27.993 37.9465C27.8949 37.9876 27.7738 38.02 27.6297 38.0435C27.4855 38.0728 27.3615 38.0875 27.2577 38.0875C27.0155 38.0875 26.8194 38.0141 26.6694 37.8672C26.5252 37.7144 26.4532 37.5117 26.4532 37.2591V31.601Z" fill="#F2C91E"/>
<path d="M30.5431 38.1228C30.2259 38.1228 29.9318 38.0611 29.6608 37.9377C29.3955 37.8084 29.1648 37.6351 28.9687 37.4177C28.7726 37.2003 28.6198 36.9477 28.5102 36.6598C28.4006 36.3719 28.3458 36.0693 28.3458 35.752C28.3458 35.4289 28.4006 35.1233 28.5102 34.8354C28.6256 34.5475 28.7813 34.2949 28.9774 34.0775C29.1734 33.8601 29.4041 33.6897 29.6694 33.5663C29.9405 33.4371 30.2317 33.3724 30.5431 33.3724C30.8546 33.3724 31.1429 33.4371 31.4082 33.5663C31.6735 33.6897 31.9042 33.8601 32.1003 34.0775C32.3021 34.2949 32.4578 34.5475 32.5674 34.8354C32.6828 35.1233 32.7404 35.4289 32.7404 35.752C32.7404 36.0693 32.6828 36.3719 32.5674 36.6598C32.4578 36.9477 32.305 37.2003 32.1089 37.4177C31.9128 37.6351 31.6793 37.8084 31.4082 37.9377C31.1429 38.0611 30.8546 38.1228 30.5431 38.1228ZM28.7784 35.7696C28.7784 36.0399 28.8245 36.2955 28.9168 36.5364C29.0091 36.7714 29.1331 36.9771 29.2888 37.1533C29.4503 37.3296 29.6377 37.4706 29.8511 37.5764C30.0645 37.6762 30.2923 37.7262 30.5345 37.7262C30.7767 37.7262 31.0045 37.6762 31.2179 37.5764C31.4313 37.4706 31.6187 37.3266 31.7802 37.1445C31.9417 36.9624 32.0686 36.7538 32.1608 36.5188C32.2531 36.2779 32.2993 36.0193 32.2993 35.7432C32.2993 35.4729 32.2531 35.2203 32.1608 34.9853C32.0686 34.7444 31.9417 34.5358 31.7802 34.3595C31.6187 34.1774 31.4313 34.0334 31.2179 33.9277C31.0103 33.8219 30.7854 33.769 30.5431 33.769C30.3009 33.769 30.0731 33.8219 29.8597 33.9277C29.6463 34.0334 29.4589 34.1774 29.2974 34.3595C29.1417 34.5417 29.0148 34.7561 28.9168 35.0029C28.8245 35.2438 28.7784 35.4994 28.7784 35.7696Z" fill="#F2C91E"/>
<path d="M35.5934 38.1051C35.282 38.1051 34.9965 38.0405 34.737 37.9113C34.4775 37.7761 34.2526 37.5999 34.0623 37.3825C33.8777 37.1592 33.7306 36.9066 33.6211 36.6245C33.5173 36.3425 33.4653 36.0517 33.4653 35.752C33.4653 35.4406 33.5144 35.141 33.6124 34.8531C33.7162 34.5652 33.8604 34.3125 34.0449 34.0951C34.2295 33.8719 34.4487 33.6956 34.7024 33.5663C34.9619 33.4371 35.2474 33.3724 35.5588 33.3724C35.951 33.3724 36.2913 33.4782 36.5796 33.6897C36.8738 33.8954 37.1217 34.148 37.3236 34.4477V33.4518H37.7215V38.1228C37.7215 38.4342 37.6639 38.7074 37.5485 38.9424C37.4332 39.1774 37.2775 39.3713 37.0814 39.5241C36.8911 39.6827 36.6661 39.8002 36.4066 39.8766C36.1529 39.9589 35.8847 40 35.6021 40C35.3426 40 35.109 39.9736 34.9014 39.9207C34.6938 39.8737 34.5092 39.8032 34.3477 39.7092C34.192 39.621 34.0507 39.5094 33.9238 39.3743C33.8027 39.245 33.696 39.101 33.6038 38.9424L33.8979 38.7397C34.0767 39.0511 34.3189 39.2773 34.6246 39.4183C34.9302 39.5652 35.2561 39.6387 35.6021 39.6387C35.8328 39.6387 36.049 39.6063 36.2509 39.5417C36.4585 39.4771 36.6373 39.3801 36.7872 39.2509C36.943 39.1275 37.0641 38.9718 37.1506 38.7838C37.2429 38.5958 37.289 38.3754 37.289 38.1228V37.1181C37.1044 37.4177 36.8593 37.6586 36.5537 37.8408C36.248 38.017 35.9279 38.1051 35.5934 38.1051ZM35.6973 37.7262C35.8876 37.7262 36.0721 37.6909 36.2509 37.6204C36.4354 37.544 36.5998 37.4471 36.744 37.3296C36.8939 37.2121 37.0151 37.0799 37.1073 36.933C37.2054 36.7861 37.2659 36.6392 37.289 36.4923V34.9853C37.2198 34.809 37.1275 34.6474 37.0122 34.5005C36.8968 34.3478 36.7642 34.2185 36.6142 34.1128C36.4701 34.007 36.3115 33.9247 36.1384 33.866C35.9712 33.8013 35.8011 33.769 35.628 33.769C35.357 33.769 35.1148 33.8278 34.9014 33.9453C34.688 34.0628 34.5063 34.2156 34.3564 34.4036C34.2122 34.5916 34.0997 34.8061 34.019 35.047C33.944 35.282 33.9065 35.5199 33.9065 35.7608C33.9065 36.0252 33.9527 36.2749 34.0449 36.51C34.1372 36.745 34.2641 36.9536 34.4256 37.1357C34.5871 37.3178 34.7774 37.4618 34.9965 37.5675C35.2157 37.6733 35.4493 37.7262 35.6973 37.7262Z" fill="#F2C91E"/>
<path d="M40.9596 38.1228C40.6424 38.1228 40.3482 38.0611 40.0772 37.9377C39.8119 37.8084 39.5812 37.6351 39.3851 37.4177C39.189 37.2003 39.0362 36.9477 38.9266 36.6598C38.817 36.3719 38.7623 36.0693 38.7623 35.752C38.7623 35.4289 38.817 35.1233 38.9266 34.8354C39.042 34.5475 39.1977 34.2949 39.3938 34.0775C39.5899 33.8601 39.8205 33.6897 40.0858 33.5663C40.3569 33.4371 40.6481 33.3724 40.9596 33.3724C41.271 33.3724 41.5593 33.4371 41.8246 33.5663C42.0899 33.6897 42.3206 33.8601 42.5167 34.0775C42.7185 34.2949 42.8743 34.5475 42.9838 34.8354C43.0992 35.1233 43.1569 35.4289 43.1569 35.752C43.1569 36.0693 43.0992 36.3719 42.9838 36.6598C42.8743 36.9477 42.7214 37.2003 42.5253 37.4177C42.3293 37.6351 42.0957 37.8084 41.8246 37.9377C41.5593 38.0611 41.271 38.1228 40.9596 38.1228ZM39.1948 35.7696C39.1948 36.0399 39.2409 36.2955 39.3332 36.5364C39.4255 36.7714 39.5495 36.9771 39.7052 37.1533C39.8667 37.3296 40.0541 37.4706 40.2675 37.5764C40.4809 37.6762 40.7087 37.7262 40.9509 37.7262C41.1931 37.7262 41.4209 37.6762 41.6343 37.5764C41.8477 37.4706 42.0351 37.3266 42.1966 37.1445C42.3581 36.9624 42.485 36.7538 42.5773 36.5188C42.6695 36.2779 42.7157 36.0193 42.7157 35.7432C42.7157 35.4729 42.6695 35.2203 42.5773 34.9853C42.485 34.7444 42.3581 34.5358 42.1966 34.3595C42.0351 34.1774 41.8477 34.0334 41.6343 33.9277C41.4267 33.8219 41.2018 33.769 40.9596 33.769C40.7173 33.769 40.4895 33.8219 40.2761 33.9277C40.0628 34.0334 39.8753 34.1774 39.7138 34.3595C39.5581 34.5417 39.4313 34.7561 39.3332 35.0029C39.2409 35.2438 39.1948 35.4994 39.1948 35.7696Z" fill="#F2C91E"/>
</g>
</svg>
