<svg width="63" height="52" viewBox="0 0 63 52" fill="none" xmlns="http://www.w3.org/2000/svg">
<path d="M12.9704 46.8618C13.299 39.4526 17.9995 35.4065 22.5714 35.6677C25.6419 35.8436 29.5162 38.4922 32.981 31.4257C34.0565 29.2355 34.9035 26.8055 36.7727 25.2342C41.0118 21.6613 44.8497 25.2632 47.5613 25.3221C49.7848 25.3701 51.7512 23.6929 52.7247 21.6958C53.6982 19.6987 53.8807 17.4219 54.045 15.2047C54.3763 16.3014 55.749 16.6449 56.8165 16.236C57.766 23.5996 54.022 27.9968 49.8992 28.5569C46.335 29.0433 41.3636 26.1569 38.45 29.165C35.7258 31.9727 38.311 37.9974 31.752 39.5828C27.9357 40.5058 25.0284 38.6226 22.4592 38.6617C18.6351 38.7196 15.3581 42.4755 15.912 47.5485C15.1205 46.5795 14.1081 46.3361 12.9722 46.8646L12.9704 46.8618Z" fill="#F2C91E"/>
<path d="M53.1041 14.7517C53.0339 15.7465 53.5597 16.7959 54.465 17.2115C55.1817 17.5384 56.0515 17.4434 56.7344 17.054C57.9263 16.3736 58.5074 14.7499 57.9353 13.5013C56.7223 10.8513 53.2833 12.2044 53.1012 14.7535L53.1041 14.7517Z" fill="#F08BDF"/>
<path d="M13.6445 44.6015C14.0055 44.4565 14.4046 44.4157 14.7937 44.4413C16.081 44.5303 17.337 45.4731 17.5328 46.748C17.6016 47.1975 17.5424 47.66 17.4404 48.1057C17.3373 48.556 17.1808 49.0041 16.9085 49.3774C16.2525 50.2829 14.9562 50.5966 13.8994 50.233C11.445 49.3854 11.0744 45.6435 13.6445 44.6015Z" fill="#F08BDF"/>
<path d="M5.86502 35.6677C6.19363 28.2585 10.8941 24.2124 15.4661 24.4736C18.5366 24.6495 22.4108 27.2981 25.8757 20.2316C26.9511 18.0415 27.7982 15.6114 29.6674 14.0401C33.9065 10.4673 37.7443 14.0691 40.4559 14.128C42.6794 14.176 44.6458 12.4988 45.6193 10.5017C46.5928 8.50462 46.7754 6.22778 46.9396 4.01063C47.2709 5.10735 48.6436 5.45083 49.7111 5.04186C50.6606 12.4055 46.9166 16.8027 42.7939 17.3629C39.2297 17.8492 34.2583 14.9628 31.3446 17.971C28.6204 20.7786 31.2057 26.8033 24.6466 28.3887C20.8303 29.3117 17.923 27.4285 15.3539 27.4676C11.5297 27.5255 8.25276 31.2814 8.80666 36.3544C8.01518 35.3854 7.00272 35.142 5.86683 35.6705L5.86502 35.6677Z" fill="#F08BDF"/>
<path d="M45.9985 3.5575C45.9283 4.55225 46.4541 5.60168 47.3594 6.01732C48.0761 6.34422 48.9459 6.24915 49.6288 5.85974C50.8207 5.17937 51.4018 3.55565 50.8297 2.30705C49.6168 -0.342898 46.1777 1.01015 45.9956 3.55932L45.9985 3.5575Z" fill="#F2C91E"/>
<path d="M6.53914 33.4074C6.90016 33.2624 7.29923 33.2216 7.68836 33.2472C8.97567 33.3362 10.2316 34.279 10.4275 35.5539C10.4963 36.0034 10.4371 36.4659 10.335 36.9116C10.232 37.3619 10.0754 37.81 9.8032 38.1833C9.14716 39.0889 7.85081 39.4025 6.79409 39.0389C4.33966 38.1913 3.96909 34.4494 6.53914 33.4074Z" fill="#F2C91E"/>
</svg>
