<svg width="136" height="101" viewBox="0 0 136 101" fill="none" xmlns="http://www.w3.org/2000/svg">
<path d="M35.4664 80.6115V70.2111H37.4526V80.6115H35.4664Z" fill="white"/>
<path d="M51.1109 80.6118H49.1821V76.3051C49.1821 75.6899 49.0768 75.2407 48.866 74.9576C48.6648 74.6744 48.3817 74.5329 48.0166 74.5329C47.6323 74.5329 47.2726 74.684 46.9373 74.9874C46.602 75.2801 46.3614 75.6665 46.2177 76.1444V80.6118H44.289V76.3051C44.289 75.6899 44.1836 75.2407 43.9729 74.9576C43.7717 74.6744 43.4886 74.5329 43.1235 74.5329C42.7584 74.5329 42.3901 74.6797 42.0441 74.9725C41.7089 75.2652 41.4683 75.6516 41.3246 76.1295V80.6118H39.3959V72.9362H41.1373V74.3572C41.4151 73.8591 41.794 73.478 42.2741 73.2151C42.7637 72.9416 43.3193 72.8053 43.9431 72.8053C44.5668 72.8053 45.066 72.9618 45.4109 73.2737C45.7558 73.5866 45.9772 73.9719 46.073 74.4307C46.3795 73.9038 46.7691 73.5025 47.2385 73.23C47.709 72.9469 48.2454 72.8053 48.85 72.8053C49.3109 72.8053 49.6899 72.8937 49.9868 73.0693C50.2838 73.2449 50.5148 73.4748 50.6776 73.758C50.8405 74.0411 50.9512 74.3636 51.0087 74.7245C51.0757 75.0853 51.1098 75.4525 51.1098 75.8229V80.6128L51.1109 80.6118Z" fill="white"/>
<path d="M57.3085 80.7573C56.7135 80.7573 56.1952 80.6253 55.7545 80.3624C55.3128 80.0888 54.9679 79.7227 54.7188 79.2639V83.7324H52.7901V72.936H54.474V74.2548C54.7518 73.8056 55.1116 73.4543 55.5533 73.1999C55.9951 72.936 56.5028 72.804 57.0786 72.804C57.5874 72.804 58.0568 72.9115 58.489 73.1265C58.9211 73.3319 59.2905 73.6151 59.597 73.9759C59.9132 74.3271 60.158 74.7476 60.3315 75.2362C60.5135 75.7151 60.605 76.2229 60.605 76.7593C60.605 77.2958 60.5231 77.8387 60.3602 78.3262C60.1974 78.8147 59.9664 79.2394 59.6694 79.6003C59.382 79.9622 59.0361 80.2453 58.6337 80.4508C58.2303 80.6562 57.7897 80.7584 57.3096 80.7584L57.3085 80.7573ZM56.6614 79.0872C56.9488 79.0872 57.2127 79.0234 57.4533 78.8967C57.7024 78.77 57.9142 78.5987 58.0866 78.3837C58.2591 78.1686 58.3932 77.9196 58.4901 77.6364C58.5858 77.3533 58.6337 77.0606 58.6337 76.7583C58.6337 76.4358 58.5805 76.1377 58.4751 75.8642C58.3698 75.581 58.2208 75.3373 58.0292 75.1318C57.8471 74.9264 57.6257 74.7657 57.3671 74.6486C57.118 74.5315 56.8445 74.473 56.5464 74.473C56.3644 74.473 56.1771 74.507 55.9855 74.5752C55.7939 74.6337 55.6161 74.722 55.4533 74.8391C55.2904 74.9562 55.1414 75.0935 55.0073 75.2489C54.8827 75.4054 54.7869 75.5757 54.7199 75.762V77.564C54.8923 78.0037 55.1563 78.3698 55.5118 78.6625C55.8673 78.9457 56.2505 79.0872 56.6635 79.0872H56.6614Z" fill="white"/>
<path d="M66.4017 74.635C65.8162 74.6446 65.2936 74.7617 64.8327 74.9863C64.3718 75.2013 64.0408 75.5281 63.8396 75.9677V80.6118H61.9109V72.9362H63.681V74.5765C63.8151 74.3125 63.9737 74.0784 64.1557 73.8729C64.3378 73.6579 64.5347 73.4727 64.7454 73.3162C64.9562 73.1598 65.168 73.0427 65.3788 72.965C65.5991 72.8766 65.8109 72.833 66.0121 72.833H66.242C66.2995 72.833 66.3527 72.8383 66.4006 72.8479V74.635H66.4017Z" fill="white"/>
<path d="M70.5803 80.7573C69.9662 80.7573 69.4148 80.6498 68.9252 80.4348C68.4355 80.2198 68.0183 79.9324 67.6734 79.5705C67.3381 79.2 67.0784 78.7743 66.8964 78.2964C66.7144 77.8174 66.6228 77.315 66.6228 76.7881C66.6228 76.2612 66.7144 75.7428 66.8964 75.2649C67.0784 74.7859 67.3381 74.3665 67.6734 74.0046C68.0183 73.6331 68.4366 73.3404 68.9252 73.1254C69.4148 72.9104 69.9662 72.8029 70.5803 72.8029C71.1945 72.8029 71.7416 72.9104 72.2206 73.1254C72.7102 73.3404 73.1222 73.6331 73.4585 74.0046C73.8034 74.3655 74.0674 74.7859 74.2505 75.2649C74.4325 75.7439 74.524 76.2516 74.524 76.7881C74.524 77.3245 74.4325 77.8184 74.2505 78.2964C74.0684 78.7743 73.8087 79.2 73.4734 79.5705C73.1381 79.9324 72.7251 80.2198 72.2355 80.4348C71.7459 80.6498 71.1945 80.7573 70.5803 80.7573ZM68.609 76.787C68.609 77.1287 68.6569 77.4406 68.7527 77.7237C68.8581 77.9973 68.9975 78.2368 69.17 78.4422C69.352 78.6476 69.5638 78.8083 69.8033 78.9254C70.0428 79.0329 70.3025 79.0872 70.5803 79.0872C70.8582 79.0872 71.1179 79.0329 71.3574 78.9254C71.5969 78.8083 71.8034 78.6476 71.9758 78.4422C72.1578 78.2368 72.2972 77.993 72.393 77.7099C72.4984 77.4267 72.5516 77.1149 72.5516 76.7732C72.5516 76.4315 72.4984 76.1335 72.393 75.8503C72.2972 75.5672 72.1578 75.3234 71.9758 75.118C71.8034 74.9126 71.5969 74.7572 71.3574 74.6497C71.1179 74.5326 70.8582 74.474 70.5803 74.474C70.3025 74.474 70.0428 74.5326 69.8033 74.6497C69.5638 74.7667 69.352 74.9285 69.17 75.1329C68.9975 75.3383 68.8581 75.5821 68.7527 75.8652C68.6569 76.1484 68.609 76.456 68.609 76.7881V76.787Z" fill="white"/>
<path d="M77.5878 80.6114L74.8107 72.9359H76.7969L78.7107 79.0148L80.6395 72.9359H82.4532L79.6761 80.6114H77.5878Z" fill="white"/>
<path d="M85.3851 72.9351H83.4564V80.6106H85.3851V72.9351Z" fill="white"/>
<path d="M85.3851 70.2121H83.4564V72.16H85.3851V70.2121Z" fill="white"/>
<path d="M86.6217 79.4099L90.824 74.3124H86.7941V72.9351H92.8528V74.1357L88.6792 79.2333H92.9241V80.6096H86.6206V79.4089L86.6217 79.4099Z" fill="white"/>
<path d="M97.5223 80.7573C96.9177 80.7573 96.3706 80.6551 95.8821 80.4497C95.3924 80.2347 94.9752 79.9473 94.6303 79.5854C94.2844 79.2245 94.0161 78.8041 93.8245 78.3251C93.6425 77.8461 93.551 77.3437 93.551 76.8168C93.551 76.2899 93.6425 75.7577 93.8245 75.2787C94.0066 74.7902 94.2705 74.3655 94.6165 74.0046C94.9613 73.6331 95.3797 73.3404 95.8682 73.1254C96.3674 72.9104 96.9241 72.8029 97.5372 72.8029C98.1503 72.8029 98.6985 72.9104 99.1775 73.1254C99.6671 73.3404 100.079 73.6289 100.415 73.9897C100.76 74.3506 101.02 74.771 101.192 75.25C101.374 75.729 101.466 76.2261 101.466 76.7434C101.466 76.8711 101.461 76.9924 101.451 77.1095C101.451 77.2266 101.442 77.3245 101.422 77.4022H95.5936C95.6223 77.7056 95.6947 77.9738 95.8097 78.208C95.9246 78.4422 96.0737 78.6423 96.2557 78.8083C96.4377 78.9744 96.6442 79.1011 96.8741 79.1894C97.104 79.2767 97.3446 79.3214 97.5936 79.3214C97.9768 79.3214 98.3377 79.2288 98.673 79.0425C99.0178 78.8467 99.2531 78.5933 99.3776 78.2804L101.033 78.7487C100.755 79.3352 100.308 79.8174 99.6948 80.1985C99.0902 80.57 98.3664 80.7552 97.5213 80.7552L97.5223 80.7573ZM99.4798 76.1281C99.4319 75.5523 99.2211 75.0925 98.8465 74.7508C98.4814 74.3995 98.0354 74.2239 97.5085 74.2239C97.2498 74.2239 97.005 74.2729 96.7751 74.3708C96.5548 74.4591 96.3579 74.5858 96.1854 74.7518C96.013 74.9179 95.8693 75.118 95.7533 75.3522C95.6479 75.5863 95.5851 75.845 95.5659 76.1281H99.4809H99.4798Z" fill="white"/>
<path d="M76.5471 50.147C82.7463 50.147 87.7778 44.414 87.7778 37.3452V13.5842C81.5787 13.5842 76.5471 17.4981 76.5471 24.5669V50.147Z" fill="white"/>
<path d="M100.4 59.0423C94.2012 59.0423 89.1697 53.3094 89.1697 46.2406V13.5842C95.3688 13.5842 100.4 17.4981 100.4 24.5669V59.0423Z" fill="white"/>
<path d="M87.7778 12.0397C87.7778 5.48819 83.9151 0.170351 79.1528 0.170351H76.5471C76.5471 6.72185 79.1976 12.0397 83.9598 12.0397H87.7778Z" fill="white"/>
<path d="M48.1655 49.8552C41.4991 49.8552 36.1237 44.1105 36.1237 37.0566V13.3211C42.7657 13.3211 48.1655 17.2499 48.1655 24.3049V49.8562V49.8552Z" fill="white"/>
<path d="M75.0829 59.0496C75.0829 46.9259 66.3557 37.0875 55.5977 37.0875H49.7114C49.7114 49.2112 55.6988 59.0496 66.4558 59.0496H75.0829Z" fill="white"/>
<path d="M75.0961 23.628C75.0216 17.8482 70.2626 13.0519 63.9932 12.0247C70.6085 13.3169 69.9656 23.7908 62.6179 23.7908H62.1262C61.8899 23.7908 61.6568 23.7855 61.4268 23.7749C53.7247 23.4236 54.0536 11.8864 61.7643 11.8864H62.2496C62.4838 11.8864 62.7169 11.8917 62.9479 11.9023C63.1278 11.9108 63.3024 11.9268 63.4737 11.946C70.9555 11.9183 75.0972 6.57704 75.0972 0H63.2906C55.8206 0 49.7523 5.28378 49.6746 11.8193H49.6725C49.6725 11.8449 49.6725 11.8693 49.6725 11.8949C49.6725 11.9119 49.6725 11.9289 49.6725 11.947H49.6735C49.7268 18.4453 53.8375 23.7046 61.2278 23.7653C54.6869 24.6381 49.6725 29.5962 49.6725 35.575H63.4141C70.881 35.575 75.0376 30.2976 75.095 23.7663H75.0961C75.0961 23.7472 75.0961 23.7291 75.0961 23.7099C75.0961 23.6823 75.0961 23.6556 75.0961 23.628Z" fill="white"/>
<path d="M63.9932 12.0247C63.825 11.9917 63.6504 11.9673 63.4737 11.946C63.4705 11.946 63.4676 11.9462 63.4644 11.9462C63.6421 11.9685 63.8186 11.996 63.9932 12.0247Z" fill="white"/>
<path d="M0 94.76C0 94.376 0.066 93.995 0.198 93.617C0.336 93.233 0.534 92.891 0.792 92.591C1.056 92.285 1.377 92.039 1.755 91.853C2.133 91.667 2.562 91.574 3.042 91.574C3.612 91.574 4.101 91.703 4.509 91.961C4.917 92.219 5.22 92.555 5.418 92.969L4.779 93.383C4.683 93.179 4.566 93.008 4.428 92.87C4.296 92.732 4.149 92.621 3.987 92.537C3.831 92.453 3.669 92.393 3.501 92.357C3.333 92.321 3.168 92.303 3.006 92.303C2.652 92.303 2.337 92.378 2.061 92.528C1.791 92.672 1.563 92.864 1.377 93.104C1.191 93.338 1.05 93.605 0.954 93.905C0.864 94.199 0.819 94.496 0.819 94.796C0.819 95.132 0.873 95.453 0.981 95.759C1.095 96.059 1.251 96.326 1.449 96.56C1.647 96.794 1.881 96.98 2.151 97.118C2.421 97.256 2.715 97.325 3.033 97.325C3.201 97.325 3.372 97.304 3.546 97.262C3.726 97.22 3.897 97.154 4.059 97.064C4.221 96.968 4.371 96.851 4.509 96.713C4.653 96.569 4.77 96.398 4.86 96.2L5.535 96.569C5.433 96.809 5.289 97.022 5.103 97.208C4.923 97.388 4.716 97.541 4.482 97.667C4.254 97.793 4.011 97.889 3.753 97.955C3.495 98.021 3.243 98.054 2.997 98.054C2.559 98.054 2.157 97.958 1.791 97.766C1.425 97.574 1.107 97.325 0.837 97.019C0.573 96.707 0.366 96.356 0.216 95.966C0.072 95.57 0 95.168 0 94.76Z" fill="white"/>
<path d="M7.62877 98.09C7.40677 98.09 7.19977 98.054 7.00777 97.982C6.81577 97.904 6.64777 97.799 6.50377 97.667C6.36577 97.535 6.25477 97.382 6.17077 97.208C6.09277 97.028 6.05377 96.833 6.05377 96.623C6.05377 96.407 6.10177 96.212 6.19777 96.038C6.29377 95.858 6.42877 95.705 6.60277 95.579C6.78277 95.453 6.99277 95.354 7.23277 95.282C7.47877 95.21 7.74577 95.174 8.03377 95.174C8.26177 95.174 8.49277 95.195 8.72677 95.237C8.96077 95.279 9.16777 95.336 9.34777 95.408V95.03C9.34777 94.646 9.23977 94.346 9.02377 94.13C8.80777 93.908 8.50177 93.797 8.10577 93.797C7.63177 93.797 7.13377 93.98 6.61177 94.346L6.35077 93.833C6.95677 93.425 7.56577 93.221 8.17777 93.221C8.79577 93.221 9.27577 93.386 9.61777 93.716C9.96577 94.046 10.1398 94.511 10.1398 95.111V97.028C10.1398 97.214 10.2238 97.31 10.3918 97.316V98C10.3078 98.012 10.2388 98.021 10.1848 98.027C10.1308 98.033 10.0738 98.036 10.0138 98.036C9.85777 98.036 9.73177 97.991 9.63577 97.901C9.54577 97.805 9.49177 97.691 9.47377 97.559L9.45577 97.226C9.24577 97.508 8.97877 97.724 8.65477 97.874C8.33677 98.018 7.99477 98.09 7.62877 98.09ZM7.83577 97.496C8.11777 97.496 8.37877 97.445 8.61877 97.343C8.86477 97.235 9.05077 97.094 9.17677 96.92C9.29077 96.806 9.34777 96.689 9.34777 96.569V95.876C8.96377 95.726 8.56477 95.651 8.15077 95.651C7.75477 95.651 7.43077 95.735 7.17877 95.903C6.93277 96.071 6.80977 96.29 6.80977 96.56C6.80977 96.692 6.83377 96.815 6.88177 96.929C6.93577 97.043 7.00777 97.142 7.09777 97.226C7.19377 97.31 7.30477 97.376 7.43077 97.424C7.55677 97.472 7.69177 97.496 7.83577 97.496Z" fill="white"/>
<path d="M13.8182 98.09C13.4522 98.09 13.1192 98 12.8192 97.82C12.5192 97.64 12.2822 97.406 12.1082 97.118V98H11.4062V91.43H12.1982V94.238C12.3962 93.932 12.6392 93.686 12.9272 93.5C13.2152 93.314 13.5512 93.221 13.9352 93.221C14.2592 93.221 14.5502 93.29 14.8082 93.428C15.0662 93.566 15.2852 93.749 15.4652 93.977C15.6512 94.199 15.7922 94.46 15.8882 94.76C15.9902 95.054 16.0412 95.357 16.0412 95.669C16.0412 95.999 15.9842 96.311 15.8702 96.605C15.7562 96.899 15.6002 97.157 15.4022 97.379C15.2042 97.595 14.9672 97.769 14.6912 97.901C14.4212 98.027 14.1302 98.09 13.8182 98.09ZM13.6202 97.406C13.8542 97.406 14.0702 97.358 14.2682 97.262C14.4662 97.166 14.6372 97.037 14.7812 96.875C14.9252 96.713 15.0362 96.53 15.1142 96.326C15.1922 96.116 15.2312 95.897 15.2312 95.669C15.2312 95.441 15.1922 95.222 15.1142 95.012C15.0422 94.796 14.9372 94.607 14.7992 94.445C14.6672 94.283 14.5052 94.154 14.3132 94.058C14.1272 93.956 13.9202 93.905 13.6922 93.905C13.5242 93.905 13.3652 93.935 13.2152 93.995C13.0652 94.055 12.9242 94.136 12.7922 94.238C12.6662 94.334 12.5522 94.448 12.4502 94.58C12.3542 94.712 12.2702 94.853 12.1982 95.003V96.362C12.2282 96.512 12.2912 96.65 12.3872 96.776C12.4892 96.902 12.6062 97.013 12.7382 97.109C12.8762 97.199 13.0202 97.271 13.1702 97.325C13.3262 97.379 13.4762 97.406 13.6202 97.406Z" fill="white"/>
<path d="M17.0136 98V93.302H17.8056V98H17.0136ZM17.0136 92.42V91.43H17.8056V92.42H17.0136Z" fill="white"/>
<path d="M23.1648 98H22.3728V95.372C22.3728 94.868 22.2948 94.502 22.1388 94.274C21.9888 94.046 21.7578 93.932 21.4458 93.932C21.2838 93.932 21.1218 93.965 20.9598 94.031C20.7978 94.091 20.6448 94.175 20.5008 94.283C20.3568 94.391 20.2308 94.52 20.1228 94.67C20.0148 94.82 19.9338 94.985 19.8798 95.165V98H19.0878V93.302H19.8078V94.31C19.9938 93.98 20.2608 93.716 20.6088 93.518C20.9628 93.32 21.3468 93.221 21.7608 93.221C22.0308 93.221 22.2558 93.272 22.4358 93.374C22.6158 93.47 22.7598 93.608 22.8678 93.788C22.9758 93.962 23.0508 94.169 23.0928 94.409C23.1408 94.649 23.1648 94.91 23.1648 95.192V98Z" fill="white"/>
<path d="M26.4754 98.09C26.1214 98.09 25.7974 98.027 25.5034 97.901C25.2094 97.769 24.9574 97.592 24.7474 97.37C24.5374 97.148 24.3724 96.89 24.2524 96.596C24.1384 96.296 24.0814 95.981 24.0814 95.651C24.0814 95.321 24.1384 95.009 24.2524 94.715C24.3724 94.421 24.5374 94.163 24.7474 93.941C24.9634 93.719 25.2184 93.545 25.5124 93.419C25.8064 93.287 26.1304 93.221 26.4844 93.221C26.8384 93.221 27.1594 93.287 27.4474 93.419C27.7414 93.551 27.9904 93.728 28.1944 93.95C28.3984 94.166 28.5544 94.421 28.6624 94.715C28.7764 95.003 28.8334 95.303 28.8334 95.615C28.8334 95.681 28.8304 95.741 28.8244 95.795C28.8244 95.849 28.8214 95.891 28.8154 95.921H24.9184C24.9364 96.155 24.9904 96.368 25.0804 96.56C25.1704 96.752 25.2874 96.917 25.4314 97.055C25.5754 97.193 25.7374 97.301 25.9174 97.379C26.1034 97.457 26.2984 97.496 26.5024 97.496C26.6464 97.496 26.7874 97.478 26.9254 97.442C27.0634 97.4 27.1924 97.346 27.3124 97.28C27.4324 97.214 27.5374 97.133 27.6274 97.037C27.7234 96.941 27.7954 96.833 27.8434 96.713L28.5274 96.902C28.4494 97.076 28.3414 97.235 28.2034 97.379C28.0714 97.523 27.9154 97.649 27.7354 97.757C27.5614 97.859 27.3664 97.94 27.1504 98C26.9344 98.06 26.7094 98.09 26.4754 98.09ZM28.0864 95.336C28.0684 95.114 28.0114 94.91 27.9154 94.724C27.8254 94.532 27.7084 94.37 27.5644 94.238C27.4264 94.106 27.2644 94.004 27.0784 93.932C26.8924 93.854 26.6944 93.815 26.4844 93.815C26.2744 93.815 26.0764 93.854 25.8904 93.932C25.7044 94.004 25.5394 94.109 25.3954 94.247C25.2574 94.379 25.1434 94.538 25.0534 94.724C24.9694 94.91 24.9184 95.114 24.9004 95.336H28.0864Z" fill="white"/>
<path d="M32.0998 97.766C32.0518 97.79 31.9888 97.82 31.9108 97.856C31.8328 97.886 31.7428 97.919 31.6408 97.955C31.5448 97.985 31.4368 98.009 31.3168 98.027C31.2028 98.051 31.0828 98.063 30.9568 98.063C30.6688 98.063 30.4198 97.985 30.2098 97.829C29.9998 97.667 29.8948 97.418 29.8948 97.082V93.923H29.2558V93.302H29.8948V91.736H30.6868V93.302H31.7398V93.923H30.6868V96.839C30.6988 97.013 30.7558 97.139 30.8578 97.217C30.9598 97.295 31.0798 97.334 31.2178 97.334C31.3738 97.334 31.5148 97.31 31.6408 97.262C31.7728 97.208 31.8628 97.166 31.9108 97.136L32.0998 97.766Z" fill="white"/>
<path d="M34.5402 97.046C34.6602 97.13 34.8222 97.205 35.0262 97.271C35.2302 97.337 35.4612 97.37 35.7192 97.37C36.0252 97.37 36.2682 97.316 36.4482 97.208C36.6282 97.1 36.7632 96.941 36.8532 96.731C36.9492 96.515 37.0122 96.251 37.0422 95.939C37.0722 95.627 37.0872 95.267 37.0872 94.859V91.61H37.8972V94.859C37.8972 95.345 37.8732 95.789 37.8252 96.191C37.7832 96.587 37.6842 96.926 37.5282 97.208C37.3782 97.49 37.1592 97.709 36.8712 97.865C36.5892 98.021 36.2052 98.099 35.7192 98.099C35.1792 98.099 34.7172 97.967 34.3332 97.703L34.5402 97.046Z" fill="white"/>
<path d="M41.2322 98.09C40.8782 98.09 40.5542 98.027 40.2602 97.901C39.9662 97.769 39.7142 97.592 39.5042 97.37C39.2942 97.148 39.1292 96.89 39.0092 96.596C38.8952 96.296 38.8382 95.981 38.8382 95.651C38.8382 95.321 38.8952 95.009 39.0092 94.715C39.1292 94.421 39.2942 94.163 39.5042 93.941C39.7202 93.719 39.9752 93.545 40.2692 93.419C40.5632 93.287 40.8872 93.221 41.2412 93.221C41.5952 93.221 41.9162 93.287 42.2042 93.419C42.4982 93.551 42.7472 93.728 42.9512 93.95C43.1552 94.166 43.3112 94.421 43.4192 94.715C43.5332 95.003 43.5902 95.303 43.5902 95.615C43.5902 95.681 43.5872 95.741 43.5812 95.795C43.5812 95.849 43.5782 95.891 43.5722 95.921H39.6752C39.6932 96.155 39.7472 96.368 39.8372 96.56C39.9272 96.752 40.0442 96.917 40.1882 97.055C40.3322 97.193 40.4942 97.301 40.6742 97.379C40.8602 97.457 41.0552 97.496 41.2592 97.496C41.4032 97.496 41.5442 97.478 41.6822 97.442C41.8202 97.4 41.9492 97.346 42.0692 97.28C42.1892 97.214 42.2942 97.133 42.3842 97.037C42.4802 96.941 42.5522 96.833 42.6002 96.713L43.2842 96.902C43.2062 97.076 43.0982 97.235 42.9602 97.379C42.8282 97.523 42.6722 97.649 42.4922 97.757C42.3182 97.859 42.1232 97.94 41.9072 98C41.6912 98.06 41.4662 98.09 41.2322 98.09ZM42.8432 95.336C42.8252 95.114 42.7682 94.91 42.6722 94.724C42.5822 94.532 42.4652 94.37 42.3212 94.238C42.1832 94.106 42.0212 94.004 41.8352 93.932C41.6492 93.854 41.4512 93.815 41.2412 93.815C41.0312 93.815 40.8332 93.854 40.6472 93.932C40.4612 94.004 40.2962 94.109 40.1522 94.247C40.0142 94.379 39.9002 94.538 39.8102 94.724C39.7262 94.91 39.6752 95.114 39.6572 95.336H42.8432Z" fill="white"/>
<path d="M45.6766 98.09C45.4546 98.09 45.2476 98.054 45.0556 97.982C44.8636 97.904 44.6956 97.799 44.5516 97.667C44.4136 97.535 44.3026 97.382 44.2186 97.208C44.1406 97.028 44.1016 96.833 44.1016 96.623C44.1016 96.407 44.1496 96.212 44.2456 96.038C44.3416 95.858 44.4766 95.705 44.6506 95.579C44.8306 95.453 45.0406 95.354 45.2806 95.282C45.5266 95.21 45.7936 95.174 46.0816 95.174C46.3096 95.174 46.5406 95.195 46.7746 95.237C47.0086 95.279 47.2156 95.336 47.3956 95.408V95.03C47.3956 94.646 47.2876 94.346 47.0716 94.13C46.8556 93.908 46.5496 93.797 46.1536 93.797C45.6796 93.797 45.1816 93.98 44.6596 94.346L44.3986 93.833C45.0046 93.425 45.6136 93.221 46.2256 93.221C46.8436 93.221 47.3236 93.386 47.6656 93.716C48.0136 94.046 48.1876 94.511 48.1876 95.111V97.028C48.1876 97.214 48.2716 97.31 48.4396 97.316V98C48.3556 98.012 48.2866 98.021 48.2326 98.027C48.1786 98.033 48.1216 98.036 48.0616 98.036C47.9056 98.036 47.7796 97.991 47.6836 97.901C47.5936 97.805 47.5396 97.691 47.5216 97.559L47.5036 97.226C47.2936 97.508 47.0266 97.724 46.7026 97.874C46.3846 98.018 46.0426 98.09 45.6766 98.09ZM45.8836 97.496C46.1656 97.496 46.4266 97.445 46.6666 97.343C46.9126 97.235 47.0986 97.094 47.2246 96.92C47.3386 96.806 47.3956 96.689 47.3956 96.569V95.876C47.0116 95.726 46.6126 95.651 46.1986 95.651C45.8026 95.651 45.4786 95.735 45.2266 95.903C44.9806 96.071 44.8576 96.29 44.8576 96.56C44.8576 96.692 44.8816 96.815 44.9296 96.929C44.9836 97.043 45.0556 97.142 45.1456 97.226C45.2416 97.31 45.3526 97.376 45.4786 97.424C45.6046 97.472 45.7396 97.496 45.8836 97.496Z" fill="white"/>
<path d="M53.531 98H52.739V95.372C52.739 94.868 52.661 94.502 52.505 94.274C52.355 94.046 52.124 93.932 51.812 93.932C51.65 93.932 51.488 93.965 51.326 94.031C51.164 94.091 51.011 94.175 50.867 94.283C50.723 94.391 50.597 94.52 50.489 94.67C50.381 94.82 50.3 94.985 50.246 95.165V98H49.454V93.302H50.174V94.31C50.36 93.98 50.627 93.716 50.975 93.518C51.329 93.32 51.713 93.221 52.127 93.221C52.397 93.221 52.622 93.272 52.802 93.374C52.982 93.47 53.126 93.608 53.234 93.788C53.342 93.962 53.417 94.169 53.459 94.409C53.507 94.649 53.531 94.91 53.531 95.192V98Z" fill="white"/>
<path d="M54.6996 95.903V95.183H57.3546V95.903H54.6996Z" fill="white"/>
<path d="M58.2803 94.76C58.2803 94.376 58.3463 93.995 58.4783 93.617C58.6163 93.233 58.8143 92.891 59.0723 92.591C59.3363 92.285 59.6573 92.039 60.0353 91.853C60.4133 91.667 60.8423 91.574 61.3223 91.574C61.8923 91.574 62.3813 91.703 62.7893 91.961C63.1973 92.219 63.5003 92.555 63.6983 92.969L63.0593 93.383C62.9633 93.179 62.8463 93.008 62.7083 92.87C62.5763 92.732 62.4293 92.621 62.2673 92.537C62.1113 92.453 61.9493 92.393 61.7813 92.357C61.6133 92.321 61.4483 92.303 61.2863 92.303C60.9323 92.303 60.6173 92.378 60.3413 92.528C60.0713 92.672 59.8433 92.864 59.6573 93.104C59.4713 93.338 59.3303 93.605 59.2343 93.905C59.1443 94.199 59.0993 94.496 59.0993 94.796C59.0993 95.132 59.1533 95.453 59.2613 95.759C59.3753 96.059 59.5313 96.326 59.7293 96.56C59.9273 96.794 60.1613 96.98 60.4313 97.118C60.7013 97.256 60.9953 97.325 61.3133 97.325C61.4813 97.325 61.6523 97.304 61.8263 97.262C62.0063 97.22 62.1773 97.154 62.3393 97.064C62.5013 96.968 62.6513 96.851 62.7893 96.713C62.9333 96.569 63.0503 96.398 63.1403 96.2L63.8153 96.569C63.7133 96.809 63.5693 97.022 63.3833 97.208C63.2033 97.388 62.9963 97.541 62.7623 97.667C62.5343 97.793 62.2913 97.889 62.0333 97.955C61.7753 98.021 61.5233 98.054 61.2773 98.054C60.8393 98.054 60.4373 97.958 60.0713 97.766C59.7053 97.574 59.3873 97.325 59.1173 97.019C58.8533 96.707 58.6463 96.356 58.4963 95.966C58.3523 95.57 58.2803 95.168 58.2803 94.76Z" fill="white"/>
<path d="M68.78 98H67.988V95.372C67.988 94.886 67.904 94.526 67.736 94.292C67.568 94.052 67.322 93.932 66.998 93.932C66.842 93.932 66.686 93.965 66.53 94.031C66.374 94.091 66.227 94.175 66.089 94.283C65.957 94.391 65.837 94.52 65.729 94.67C65.627 94.82 65.549 94.985 65.495 95.165V98H64.703V91.43H65.495V94.31C65.681 93.968 65.933 93.701 66.251 93.509C66.569 93.317 66.917 93.221 67.295 93.221C67.571 93.221 67.805 93.272 67.997 93.374C68.189 93.476 68.342 93.614 68.456 93.788C68.57 93.962 68.651 94.172 68.699 94.418C68.753 94.658 68.78 94.916 68.78 95.192V98Z" fill="white"/>
<path d="M72.4956 93.995C72.0996 94.007 71.7486 94.109 71.4426 94.301C71.1426 94.493 70.9296 94.76 70.8036 95.102V98H70.0116V93.302H70.7496V94.391C70.9116 94.067 71.1246 93.806 71.3886 93.608C71.6526 93.404 71.9346 93.29 72.2346 93.266C72.2946 93.266 72.3456 93.266 72.3876 93.266C72.4296 93.266 72.4656 93.269 72.4956 93.275V93.995Z" fill="white"/>
<path d="M73.2812 98V93.302H74.0732V98H73.2812ZM73.2812 92.42V91.43H74.0732V92.42H73.2812Z" fill="white"/>
<path d="M77.0024 98.09C76.6244 98.09 76.2524 98.033 75.8864 97.919C75.5204 97.799 75.2054 97.628 74.9414 97.406L75.2834 96.875C75.5594 97.085 75.8354 97.244 76.1114 97.352C76.3874 97.454 76.6784 97.505 76.9844 97.505C77.3264 97.505 77.5964 97.439 77.7944 97.307C77.9984 97.169 78.1004 96.977 78.1004 96.731C78.1004 96.617 78.0734 96.521 78.0194 96.443C77.9654 96.359 77.8844 96.287 77.7764 96.227C77.6684 96.167 77.5304 96.113 77.3624 96.065C77.1944 96.017 76.9994 95.966 76.7774 95.912C76.4954 95.84 76.2524 95.771 76.0484 95.705C75.8444 95.639 75.6764 95.561 75.5444 95.471C75.4124 95.381 75.3164 95.273 75.2564 95.147C75.1964 95.021 75.1664 94.865 75.1664 94.679C75.1664 94.445 75.2114 94.238 75.3014 94.058C75.3974 93.872 75.5264 93.719 75.6884 93.599C75.8504 93.473 76.0394 93.38 76.2554 93.32C76.4774 93.254 76.7144 93.221 76.9664 93.221C77.3204 93.221 77.6504 93.278 77.9564 93.392C78.2624 93.506 78.5204 93.656 78.7304 93.842L78.3704 94.319C78.1724 94.145 77.9504 94.016 77.7044 93.932C77.4584 93.842 77.2064 93.797 76.9484 93.797C76.6604 93.797 76.4144 93.86 76.2104 93.986C76.0124 94.106 75.9134 94.301 75.9134 94.571C75.9134 94.679 75.9314 94.769 75.9674 94.841C76.0094 94.913 76.0754 94.976 76.1654 95.03C76.2554 95.084 76.3694 95.132 76.5074 95.174C76.6514 95.216 76.8224 95.261 77.0204 95.309C77.3324 95.381 77.6024 95.456 77.8304 95.534C78.0644 95.606 78.2564 95.693 78.4064 95.795C78.5624 95.897 78.6764 96.017 78.7484 96.155C78.8264 96.293 78.8654 96.461 78.8654 96.659C78.8654 97.097 78.6974 97.445 78.3614 97.703C78.0254 97.961 77.5724 98.09 77.0024 98.09Z" fill="white"/>
<path d="M82.2327 97.766C82.1847 97.79 82.1216 97.82 82.0436 97.856C81.9656 97.886 81.8757 97.919 81.7737 97.955C81.6777 97.985 81.5696 98.009 81.4496 98.027C81.3356 98.051 81.2156 98.063 81.0896 98.063C80.8016 98.063 80.5527 97.985 80.3427 97.829C80.1327 97.667 80.0276 97.418 80.0276 97.082V93.923H79.3886V93.302H80.0276V91.736H80.8196V93.302H81.8727V93.923H80.8196V96.839C80.8316 97.013 80.8886 97.139 80.9906 97.217C81.0926 97.295 81.2126 97.334 81.3506 97.334C81.5066 97.334 81.6477 97.31 81.7737 97.262C81.9057 97.208 81.9956 97.166 82.0436 97.136L82.2327 97.766Z" fill="white"/>
<path d="M84.9572 98.09C84.6032 98.09 84.2792 98.024 83.9852 97.892C83.6972 97.76 83.4482 97.583 83.2382 97.361C83.0342 97.139 82.8752 96.881 82.7612 96.587C82.6472 96.293 82.5902 95.984 82.5902 95.66C82.5902 95.33 82.6472 95.018 82.7612 94.724C82.8812 94.43 83.0432 94.172 83.2472 93.95C83.4572 93.728 83.7062 93.551 83.9942 93.419C84.2882 93.287 84.6092 93.221 84.9572 93.221C85.3052 93.221 85.6262 93.287 85.9202 93.419C86.2142 93.551 86.4632 93.728 86.6672 93.95C86.8772 94.172 87.0392 94.43 87.1532 94.724C87.2732 95.018 87.3332 95.33 87.3332 95.66C87.3332 95.984 87.2762 96.293 87.1622 96.587C87.0482 96.881 86.8862 97.139 86.6762 97.361C86.4662 97.583 86.2142 97.76 85.9202 97.892C85.6322 98.024 85.3112 98.09 84.9572 98.09ZM83.4002 95.669C83.4002 95.915 83.4392 96.143 83.5172 96.353C83.6012 96.563 83.7122 96.746 83.8502 96.902C83.9942 97.058 84.1592 97.181 84.3452 97.271C84.5372 97.361 84.7412 97.406 84.9572 97.406C85.1732 97.406 85.3742 97.361 85.5602 97.271C85.7522 97.181 85.9202 97.058 86.0642 96.902C86.2082 96.74 86.3192 96.554 86.3972 96.344C86.4812 96.128 86.5232 95.897 86.5232 95.651C86.5232 95.411 86.4812 95.186 86.3972 94.976C86.3192 94.76 86.2082 94.574 86.0642 94.418C85.9202 94.256 85.7522 94.13 85.5602 94.04C85.3742 93.95 85.1732 93.905 84.9572 93.905C84.7412 93.905 84.5372 93.953 84.3452 94.049C84.1592 94.139 83.9942 94.265 83.8502 94.427C83.7122 94.583 83.6012 94.769 83.5172 94.985C83.4392 95.195 83.4002 95.423 83.4002 95.669Z" fill="white"/>
<path d="M90.8219 98.09C90.4319 98.09 90.0869 97.994 89.7869 97.802C89.4929 97.61 89.2589 97.367 89.0849 97.073V99.917H88.2929V93.302H88.9949V94.184C89.1809 93.896 89.4209 93.665 89.7149 93.491C90.0149 93.311 90.3449 93.221 90.7049 93.221C91.0289 93.221 91.3259 93.287 91.5959 93.419C91.8659 93.551 92.0999 93.731 92.2979 93.959C92.4959 94.181 92.6489 94.439 92.7569 94.733C92.8709 95.027 92.9279 95.333 92.9279 95.651C92.9279 95.987 92.8769 96.305 92.7749 96.605C92.6729 96.899 92.5289 97.157 92.3429 97.379C92.1569 97.595 91.9349 97.769 91.6769 97.901C91.4189 98.027 91.1339 98.09 90.8219 98.09ZM90.5789 97.406C90.8129 97.406 91.0229 97.358 91.2089 97.262C91.4009 97.16 91.5629 97.028 91.6949 96.866C91.8329 96.698 91.9379 96.509 92.0099 96.299C92.0819 96.089 92.1179 95.873 92.1179 95.651C92.1179 95.417 92.0759 95.195 91.9919 94.985C91.9079 94.769 91.7939 94.583 91.6499 94.427C91.5059 94.265 91.3349 94.139 91.1369 94.049C90.9449 93.953 90.7349 93.905 90.5069 93.905C90.3629 93.905 90.2129 93.935 90.0569 93.995C89.9069 94.049 89.7629 94.124 89.6249 94.22C89.4929 94.31 89.3759 94.421 89.2739 94.553C89.1779 94.679 89.1149 94.814 89.0849 94.958V96.299C89.1509 96.455 89.2349 96.602 89.3369 96.74C89.4389 96.872 89.5559 96.989 89.6879 97.091C89.8199 97.187 89.9609 97.265 90.1109 97.325C90.2609 97.379 90.4169 97.406 90.5789 97.406Z" fill="white"/>
<path d="M97.9773 98H97.1853V95.372C97.1853 94.886 97.1013 94.526 96.9333 94.292C96.7653 94.052 96.5193 93.932 96.1953 93.932C96.0393 93.932 95.8833 93.965 95.7273 94.031C95.5713 94.091 95.4243 94.175 95.2863 94.283C95.1543 94.391 95.0343 94.52 94.9263 94.67C94.8243 94.82 94.7463 94.985 94.6923 95.165V98H93.9003V91.43H94.6923V94.31C94.8783 93.968 95.1303 93.701 95.4483 93.509C95.7663 93.317 96.1143 93.221 96.4923 93.221C96.7683 93.221 97.0023 93.272 97.1943 93.374C97.3863 93.476 97.5393 93.614 97.6533 93.788C97.7673 93.962 97.8483 94.172 97.8963 94.418C97.9503 94.658 97.9773 94.916 97.9773 95.192V98Z" fill="white"/>
<path d="M101.288 98.09C100.934 98.09 100.61 98.027 100.316 97.901C100.022 97.769 99.7699 97.592 99.5599 97.37C99.3499 97.148 99.1849 96.89 99.0649 96.596C98.9509 96.296 98.8939 95.981 98.8939 95.651C98.8939 95.321 98.9509 95.009 99.0649 94.715C99.1849 94.421 99.3499 94.163 99.5599 93.941C99.7759 93.719 100.031 93.545 100.325 93.419C100.619 93.287 100.943 93.221 101.297 93.221C101.651 93.221 101.972 93.287 102.26 93.419C102.554 93.551 102.803 93.728 103.007 93.95C103.211 94.166 103.367 94.421 103.475 94.715C103.589 95.003 103.646 95.303 103.646 95.615C103.646 95.681 103.643 95.741 103.637 95.795C103.637 95.849 103.634 95.891 103.628 95.921H99.7309C99.7489 96.155 99.8029 96.368 99.8929 96.56C99.9829 96.752 100.1 96.917 100.244 97.055C100.388 97.193 100.55 97.301 100.73 97.379C100.916 97.457 101.111 97.496 101.315 97.496C101.459 97.496 101.6 97.478 101.738 97.442C101.876 97.4 102.005 97.346 102.125 97.28C102.245 97.214 102.35 97.133 102.44 97.037C102.536 96.941 102.608 96.833 102.656 96.713L103.34 96.902C103.262 97.076 103.154 97.235 103.016 97.379C102.884 97.523 102.728 97.649 102.548 97.757C102.374 97.859 102.179 97.94 101.963 98C101.747 98.06 101.522 98.09 101.288 98.09ZM102.899 95.336C102.881 95.114 102.824 94.91 102.728 94.724C102.638 94.532 102.521 94.37 102.377 94.238C102.239 94.106 102.077 94.004 101.891 93.932C101.705 93.854 101.507 93.815 101.297 93.815C101.087 93.815 100.889 93.854 100.703 93.932C100.517 94.004 100.352 94.109 100.208 94.247C100.07 94.379 99.9559 94.538 99.8659 94.724C99.7819 94.91 99.7309 95.114 99.7129 95.336H102.899Z" fill="white"/>
<path d="M111.834 96.353C111.834 96.599 111.783 96.824 111.681 97.028C111.585 97.232 111.45 97.406 111.276 97.55C111.108 97.694 110.91 97.805 110.682 97.883C110.46 97.961 110.22 98 109.962 98H106.929V91.61H110.106C110.328 91.61 110.529 91.658 110.709 91.754C110.889 91.85 111.042 91.976 111.168 92.132C111.294 92.282 111.39 92.456 111.456 92.654C111.528 92.846 111.564 93.041 111.564 93.239C111.564 93.557 111.483 93.851 111.321 94.121C111.165 94.391 110.94 94.592 110.646 94.724C111.012 94.832 111.3 95.033 111.51 95.327C111.726 95.615 111.834 95.957 111.834 96.353ZM111.015 96.209C111.015 96.065 110.988 95.927 110.934 95.795C110.886 95.657 110.817 95.537 110.727 95.435C110.643 95.333 110.541 95.252 110.421 95.192C110.301 95.132 110.169 95.102 110.025 95.102H107.739V97.298H109.962C110.112 97.298 110.25 97.268 110.376 97.208C110.502 97.148 110.613 97.07 110.709 96.974C110.805 96.872 110.88 96.755 110.934 96.623C110.988 96.491 111.015 96.353 111.015 96.209ZM107.739 92.312V94.445H109.773C109.917 94.445 110.049 94.418 110.169 94.364C110.289 94.304 110.391 94.226 110.475 94.13C110.565 94.034 110.634 93.923 110.682 93.797C110.736 93.665 110.763 93.527 110.763 93.383C110.763 93.233 110.739 93.092 110.691 92.96C110.643 92.828 110.577 92.714 110.493 92.618C110.415 92.522 110.316 92.447 110.196 92.393C110.082 92.339 109.959 92.312 109.827 92.312H107.739Z" fill="white"/>
<path d="M114.893 98.09C114.539 98.09 114.215 98.024 113.921 97.892C113.633 97.76 113.384 97.583 113.174 97.361C112.97 97.139 112.811 96.881 112.697 96.587C112.583 96.293 112.526 95.984 112.526 95.66C112.526 95.33 112.583 95.018 112.697 94.724C112.817 94.43 112.979 94.172 113.183 93.95C113.393 93.728 113.642 93.551 113.93 93.419C114.224 93.287 114.545 93.221 114.893 93.221C115.241 93.221 115.562 93.287 115.856 93.419C116.15 93.551 116.399 93.728 116.603 93.95C116.813 94.172 116.975 94.43 117.089 94.724C117.209 95.018 117.269 95.33 117.269 95.66C117.269 95.984 117.212 96.293 117.098 96.587C116.984 96.881 116.822 97.139 116.612 97.361C116.402 97.583 116.15 97.76 115.856 97.892C115.568 98.024 115.247 98.09 114.893 98.09ZM113.336 95.669C113.336 95.915 113.375 96.143 113.453 96.353C113.537 96.563 113.648 96.746 113.786 96.902C113.93 97.058 114.095 97.181 114.281 97.271C114.473 97.361 114.677 97.406 114.893 97.406C115.109 97.406 115.31 97.361 115.496 97.271C115.688 97.181 115.856 97.058 116 96.902C116.144 96.74 116.255 96.554 116.333 96.344C116.417 96.128 116.459 95.897 116.459 95.651C116.459 95.411 116.417 95.186 116.333 94.976C116.255 94.76 116.144 94.574 116 94.418C115.856 94.256 115.688 94.13 115.496 94.04C115.31 93.95 115.109 93.905 114.893 93.905C114.677 93.905 114.473 93.953 114.281 94.049C114.095 94.139 113.93 94.265 113.786 94.427C113.648 94.583 113.537 94.769 113.453 94.985C113.375 95.195 113.336 95.423 113.336 95.669Z" fill="white"/>
<path d="M120.1 98.054C119.782 98.054 119.488 97.988 119.218 97.856C118.954 97.724 118.726 97.547 118.534 97.325C118.342 97.103 118.192 96.848 118.084 96.56C117.982 96.272 117.931 95.972 117.931 95.66C117.931 95.33 117.982 95.018 118.084 94.724C118.192 94.424 118.342 94.163 118.534 93.941C118.726 93.719 118.954 93.545 119.218 93.419C119.488 93.287 119.785 93.221 120.109 93.221C120.505 93.221 120.847 93.317 121.135 93.509C121.423 93.701 121.666 93.944 121.864 94.238V93.302H122.566V97.946C122.566 98.282 122.503 98.576 122.377 98.828C122.251 99.086 122.08 99.302 121.864 99.476C121.648 99.65 121.393 99.782 121.099 99.872C120.811 99.962 120.502 100.007 120.172 100.007C119.638 100.007 119.203 99.914 118.867 99.728C118.537 99.548 118.261 99.296 118.039 98.972L118.498 98.567C118.684 98.843 118.924 99.05 119.218 99.188C119.512 99.326 119.83 99.395 120.172 99.395C120.388 99.395 120.592 99.365 120.784 99.305C120.982 99.245 121.153 99.155 121.297 99.035C121.441 98.915 121.555 98.765 121.639 98.585C121.729 98.405 121.774 98.192 121.774 97.946V97.118C121.684 97.262 121.576 97.394 121.45 97.514C121.33 97.628 121.198 97.727 121.054 97.811C120.91 97.889 120.757 97.949 120.595 97.991C120.433 98.033 120.268 98.054 120.1 98.054ZM120.343 97.406C120.511 97.406 120.673 97.376 120.829 97.316C120.985 97.256 121.129 97.178 121.261 97.082C121.393 96.98 121.504 96.866 121.594 96.74C121.684 96.614 121.744 96.485 121.774 96.353V95.003C121.708 94.841 121.621 94.694 121.513 94.562C121.411 94.43 121.294 94.316 121.162 94.22C121.03 94.118 120.886 94.04 120.73 93.986C120.58 93.932 120.427 93.905 120.271 93.905C120.031 93.905 119.815 93.956 119.623 94.058C119.437 94.16 119.278 94.295 119.146 94.463C119.014 94.631 118.912 94.823 118.84 95.039C118.768 95.249 118.732 95.462 118.732 95.678C118.732 95.912 118.774 96.134 118.858 96.344C118.942 96.554 119.056 96.737 119.2 96.893C119.344 97.049 119.512 97.175 119.704 97.271C119.902 97.361 120.115 97.406 120.343 97.406Z" fill="white"/>
<path d="M125.717 98.054C125.399 98.054 125.105 97.988 124.835 97.856C124.571 97.724 124.343 97.547 124.151 97.325C123.959 97.103 123.809 96.848 123.701 96.56C123.599 96.272 123.548 95.972 123.548 95.66C123.548 95.33 123.599 95.018 123.701 94.724C123.809 94.424 123.959 94.163 124.151 93.941C124.343 93.719 124.571 93.545 124.835 93.419C125.105 93.287 125.402 93.221 125.726 93.221C126.122 93.221 126.464 93.317 126.752 93.509C127.04 93.701 127.283 93.944 127.481 94.238V93.302H128.183V97.946C128.183 98.282 128.12 98.576 127.994 98.828C127.868 99.086 127.697 99.302 127.481 99.476C127.265 99.65 127.01 99.782 126.716 99.872C126.428 99.962 126.119 100.007 125.789 100.007C125.255 100.007 124.82 99.914 124.484 99.728C124.154 99.548 123.878 99.296 123.656 98.972L124.115 98.567C124.301 98.843 124.541 99.05 124.835 99.188C125.129 99.326 125.447 99.395 125.789 99.395C126.005 99.395 126.209 99.365 126.401 99.305C126.599 99.245 126.77 99.155 126.914 99.035C127.058 98.915 127.172 98.765 127.256 98.585C127.346 98.405 127.391 98.192 127.391 97.946V97.118C127.301 97.262 127.193 97.394 127.067 97.514C126.947 97.628 126.815 97.727 126.671 97.811C126.527 97.889 126.374 97.949 126.212 97.991C126.05 98.033 125.885 98.054 125.717 98.054ZM125.96 97.406C126.128 97.406 126.29 97.376 126.446 97.316C126.602 97.256 126.746 97.178 126.878 97.082C127.01 96.98 127.121 96.866 127.211 96.74C127.301 96.614 127.361 96.485 127.391 96.353V95.003C127.325 94.841 127.238 94.694 127.13 94.562C127.028 94.43 126.911 94.316 126.779 94.22C126.647 94.118 126.503 94.04 126.347 93.986C126.197 93.932 126.044 93.905 125.888 93.905C125.648 93.905 125.432 93.956 125.24 94.058C125.054 94.16 124.895 94.295 124.763 94.463C124.631 94.631 124.529 94.823 124.457 95.039C124.385 95.249 124.349 95.462 124.349 95.678C124.349 95.912 124.391 96.134 124.475 96.344C124.559 96.554 124.673 96.737 124.817 96.893C124.961 97.049 125.129 97.175 125.321 97.271C125.519 97.361 125.732 97.406 125.96 97.406Z" fill="white"/>
<path d="M129.461 98V93.302H130.253V98H129.461ZM129.461 92.42V91.43H130.253V92.42H129.461Z" fill="white"/>
<path d="M133.587 98.09C133.233 98.09 132.909 98.024 132.615 97.892C132.327 97.76 132.078 97.583 131.868 97.361C131.664 97.139 131.505 96.881 131.391 96.587C131.277 96.293 131.22 95.984 131.22 95.66C131.22 95.33 131.277 95.018 131.391 94.724C131.511 94.43 131.673 94.172 131.877 93.95C132.087 93.728 132.336 93.551 132.624 93.419C132.918 93.287 133.239 93.221 133.587 93.221C133.935 93.221 134.256 93.287 134.55 93.419C134.844 93.551 135.093 93.728 135.297 93.95C135.507 94.172 135.669 94.43 135.783 94.724C135.903 95.018 135.963 95.33 135.963 95.66C135.963 95.984 135.906 96.293 135.792 96.587C135.678 96.881 135.516 97.139 135.306 97.361C135.096 97.583 134.844 97.76 134.55 97.892C134.262 98.024 133.941 98.09 133.587 98.09ZM132.03 95.669C132.03 95.915 132.069 96.143 132.147 96.353C132.231 96.563 132.342 96.746 132.48 96.902C132.624 97.058 132.789 97.181 132.975 97.271C133.167 97.361 133.371 97.406 133.587 97.406C133.803 97.406 134.004 97.361 134.19 97.271C134.382 97.181 134.55 97.058 134.694 96.902C134.838 96.74 134.949 96.554 135.027 96.344C135.111 96.128 135.153 95.897 135.153 95.651C135.153 95.411 135.111 95.186 135.027 94.976C134.949 94.76 134.838 94.574 134.694 94.418C134.55 94.256 134.382 94.13 134.19 94.04C134.004 93.95 133.803 93.905 133.587 93.905C133.371 93.905 133.167 93.953 132.975 94.049C132.789 94.139 132.624 94.265 132.48 94.427C132.342 94.583 132.231 94.769 132.147 94.985C132.069 95.195 132.03 95.423 132.03 95.669Z" fill="white"/>
</svg>
