<svg width="176" height="230" viewBox="0 0 176 230" fill="none" xmlns="http://www.w3.org/2000/svg">
<g id="Group 1">
<g id="Vector" style="mix-blend-mode:multiply">
<path d="M42.0183 220.547C64.9436 220.547 83.5283 201.962 83.5283 179.037C83.5283 156.112 64.9436 137.527 42.0183 137.527C19.093 137.527 0.508301 156.112 0.508301 179.037C0.508301 201.962 19.093 220.547 42.0183 220.547Z" fill="#F08BDF"/>
</g>
<g id="Vector_2" style="mix-blend-mode:multiply">
<path d="M78.0583 108.387C76.5383 111.877 70.3483 112.987 66.8983 116.747C51.6783 133.297 48.3583 177.347 48.4983 199.687C48.7083 234.727 99.3183 234.277 111.118 221.577C128.488 202.877 111.788 121.247 98.3383 112.377C96.6283 111.247 94.6183 110.537 93.1783 109.087C90.9183 106.807 88.9083 90.7371 93.0483 90.3271C96.1883 90.0171 102.068 90.9371 101.528 84.6771C101.048 79.1571 97.7783 76.0871 92.5383 75.3871C62.6783 71.3671 65.1783 86.9271 70.2383 89.5971C72.6383 90.8671 73.5283 88.9271 75.5283 89.4471C80.1783 90.6671 78.6483 107.027 78.0583 108.387Z" fill="#3C70D8"/>
</g>
<g id="Vector_3" style="mix-blend-mode:multiply">
<path d="M130.318 40.4072C121.878 38.3372 102.728 46.4471 93.1382 64.9171C77.2982 95.4171 91.6582 126.237 89.8982 152.837C89.7282 155.367 88.1582 156.367 86.8782 154.787C84.0982 151.357 83.0082 101.207 82.8782 96.5972C82.4282 80.8872 85.9882 65.9471 95.5982 53.1971C95.4882 53.0871 66.1282 44.6572 66.2082 20.4972C81.0182 23.5672 93.8482 34.8072 98.8582 49.0672C102.098 46.6372 105.348 44.2072 108.588 41.7772C101.878 30.4672 92.6482 13.2571 103.768 0.577148C112.788 10.4371 117.328 24.2571 115.918 37.5471C120.768 34.3671 124.758 34.9772 130.398 35.2372C138.128 35.5872 138.938 33.5472 141.478 34.6472C144.048 35.7672 145.228 39.7272 140.348 44.7772C136.718 48.5272 136.498 41.9071 130.318 40.3871V40.4072Z" fill="#F2C91E"/>
</g>
<g id="Vector_4" style="mix-blend-mode:multiply">
<path d="M147.138 78.7371C154.668 85.7071 158.008 73.8171 154.218 65.4971C166.298 78.1371 174.488 63.7671 162.228 56.3171C177.948 61.3971 179.208 46.9771 166.478 45.3671C176.008 46.5571 181.448 31.0171 162.818 31.0371C167.868 29.9371 173.348 27.5071 171.768 22.6071C168.818 13.4171 141.168 21.5771 135.958 41.5571C132.678 54.1371 137.758 70.0571 147.138 78.7271V78.7371Z" fill="#F08BDF"/>
</g>
</g>
</svg>
