<svg width="142" height="213" viewBox="0 0 142 213" fill="none" xmlns="http://www.w3.org/2000/svg">
<g id="Group 11">
<g id="Group 3">
<g id="Vector" style="mix-blend-mode:multiply">
<path d="M68.8681 185.357C59.5981 185.377 61.5981 120.687 65.3881 120.427C48.8981 121.527 10.2781 124.357 1.94807 94.9468C-1.91193 81.3168 23.7981 78.3468 37.3281 85.0268C49.5781 91.0668 57.1581 103.477 64.0881 115.247C64.1981 113.457 66.0581 81.9168 63.1181 78.5668C58.6881 73.5068 23.2581 76.5968 8.70807 65.8868C1.18807 60.3468 -2.94193 49.0168 2.45807 41.3968C13.1981 26.2468 52.5381 37.3868 64.7581 68.7568C57.2681 50.7368 45.9881 18.9668 62.8781 4.2468C72.3081 -3.9732 85.0081 0.166789 87.6381 14.2368C90.1581 27.7568 79.1781 56.2368 74.1581 68.8968C89.4681 44.1268 125.638 26.7968 135.288 41.2068C140.898 49.5868 135.218 66.7568 116.958 72.8568C99.8181 78.5768 81.8881 72.9768 77.1281 76.7268C71.9181 80.8368 73.8881 107.097 74.5681 113.107C91.4481 92.4468 120.588 79.5668 133.028 82.7668C140.498 84.6868 145.108 91.4468 138.928 100.707C123.118 124.407 99.5281 118.367 93.3581 118.227C89.4781 118.137 73.0281 120.647 72.0481 122.037C71.3081 123.077 73.1581 147.877 73.2881 149.147C73.8081 154.137 73.5281 185.317 68.8481 185.327L68.8681 185.357Z" fill="#F2C91E"/>
</g>
<g id="Group" style="mix-blend-mode:darken">
<path id="Vector_2" d="M32.0479 97.3268C11.8879 88.8868 7.31789 94.4668 9.97789 94.1868C24.5979 92.6468 44.3579 109.047 51.2079 110.447C55.7079 111.367 49.1979 104.507 32.0479 97.3268Z" fill="#3C70D8"/>
<path id="Vector_3" d="M52.7281 68.1667C40.6581 51.4067 19.5681 51.9767 10.2681 47.6967C9.51809 47.3467 8.87809 48.3767 9.60809 48.8267C22.8281 57.0567 26.7581 49.7167 50.7781 69.6767C51.7781 70.5067 53.6181 69.4067 52.7281 68.1667Z" fill="#3C70D8"/>
<path id="Vector_4" d="M72.0281 11.3768C70.6881 0.436787 64.9981 53.1768 67.4681 60.0268C71.5081 71.2568 72.2981 13.6068 72.0281 11.3768Z" fill="#3C70D8"/>
<path id="Vector_5" d="M130.368 49.8169C109.488 45.6469 74.7181 73.9368 84.5481 69.1068C95.4881 63.7368 103.058 56.4869 117.878 52.5969C122.688 51.3369 134.018 50.5469 130.368 49.8169Z" fill="#3C70D8"/>
<path id="Vector_6" d="M132.508 91.4667C88.5283 109.827 104.308 102.587 91.9983 106.777C81.7883 110.247 83.5483 113.487 98.7983 108.587C123.428 100.667 138.098 89.1267 132.508 91.4667Z" fill="#3C70D8"/>
</g>
<g id="Vector_7" style="mix-blend-mode:multiply">
<path d="M52.9578 142.077C53.5978 154.127 34.9878 168.637 40.9778 195.617C46.8378 222.047 87.9878 213.837 93.0978 194.677C94.3978 189.817 93.7678 174.107 87.4778 163.517C76.5378 145.097 85.1378 139.387 86.7778 135.307C91.0278 124.777 72.2378 131.007 60.0478 129.367C39.6178 126.627 52.6578 136.387 52.9578 142.077Z" fill="#F08BDF"/>
</g>
</g>
</g>
</svg>
